<?xml version="1.0" encoding="UTF-8" standalone="no"?>
<!-- Created with Inkscape (http://www.inkscape.org/) -->

<svg
   xmlns:dc="http://purl.org/dc/elements/1.1/"
   xmlns:cc="http://creativecommons.org/ns#"
   xmlns:rdf="http://www.w3.org/1999/02/22-rdf-syntax-ns#"
   xmlns:svg="http://www.w3.org/2000/svg"
   xmlns="http://www.w3.org/2000/svg"
   xmlns:xlink="http://www.w3.org/1999/xlink"
   xmlns:sodipodi="http://sodipodi.sourceforge.net/DTD/sodipodi-0.dtd"
   xmlns:inkscape="http://www.inkscape.org/namespaces/inkscape"
   width="1200.0612"
   height="1615.9962"
   viewBox="0 0 317.51617 427.56568"
   version="1.1"
   id="svg8"
   inkscape:version="0.92.2 2405546, 2018-03-11"
   sodipodi:docname="drawing.svg"
   inkscape:export-filename="/home/bobby/Pictures/inkscape/electroboy_md.png"
   inkscape:export-xdpi="15.359218"
   inkscape:export-ydpi="15.359218">
  <defs
     id="defs2">
    <linearGradient
       inkscape:collect="always"
       id="linearGradient1148">
      <stop
         style="stop-color:#ffccaa;stop-opacity:1"
         offset="0"
         id="stop1144" />
      <stop
         style="stop-color:#deaa87;stop-opacity:1"
         offset="1"
         id="stop1146" />
    </linearGradient>
    <linearGradient
       inkscape:collect="always"
       id="linearGradient956">
      <stop
         style="stop-color:#ffccaa;stop-opacity:1"
         offset="0"
         id="stop952" />
      <stop
         style="stop-color:#e9c6af;stop-opacity:1"
         offset="1"
         id="stop954" />
    </linearGradient>
    <linearGradient
       inkscape:collect="always"
       id="linearGradient875">
      <stop
         style="stop-color:#d45500;stop-opacity:1"
         offset="0"
         id="stop871" />
      <stop
         style="stop-color:#d45500;stop-opacity:0;"
         offset="1"
         id="stop873" />
    </linearGradient>
    <radialGradient
       inkscape:collect="always"
       xlink:href="#linearGradient875"
       id="radialGradient877"
       cx="-183.93945"
       cy="95.29451"
       fx="-183.93945"
       fy="95.29451"
       r="89.894714"
       gradientTransform="matrix(1,0,0,0.8463737,184.41597,14.639743)"
       gradientUnits="userSpaceOnUse" />
    <linearGradient
       inkscape:collect="always"
       xlink:href="#linearGradient956"
       id="linearGradient958"
       x1="-2.8442008"
       y1="169.95549"
       x2="80.077232"
       y2="189.19888"
       gradientUnits="userSpaceOnUse" />
    <filter
       inkscape:collect="always"
       style="color-interpolation-filters:sRGB"
       id="filter1140"
       x="-0.024"
       width="1.048"
       y="-0.024"
       height="1.048">
      <feGaussianBlur
         inkscape:collect="always"
         stdDeviation="1.4706612"
         id="feGaussianBlur1142" />
    </filter>
    <linearGradient
       inkscape:collect="always"
       xlink:href="#linearGradient1148"
       id="linearGradient1160"
       x1="-119.13945"
       y1="258.56335"
       x2="75.603882"
       y2="210.45485"
       gradientUnits="userSpaceOnUse" />
  </defs>
  <sodipodi:namedview
     id="base"
     pagecolor="#ffffff"
     bordercolor="#666666"
     borderopacity="1.0"
     inkscape:pageopacity="0.0"
     inkscape:pageshadow="2"
     inkscape:zoom="0.175"
     inkscape:cx="2849.1885"
     inkscape:cy="758.78025"
     inkscape:document-units="px"
     inkscape:current-layer="layer1"
     showgrid="false"
     showborder="true"
     units="px"
     inkscape:window-width="1920"
     inkscape:window-height="1028"
     inkscape:window-x="1280"
     inkscape:window-y="28"
     inkscape:window-maximized="1"
     inkscape:object-nodes="false"
     showguides="false"
     borderlayer="true"
     inkscape:showpageshadow="false"
     fit-margin-top="0"
     fit-margin-left="0"
     fit-margin-right="0"
     fit-margin-bottom="0" />
  <metadata
     id="metadata5">
    <rdf:RDF>
      <cc:Work
         rdf:about="">
        <dc:format>image/svg+xml</dc:format>
        <dc:type
           rdf:resource="http://purl.org/dc/dcmitype/StillImage" />
        <dc:title></dc:title>
      </cc:Work>
    </rdf:RDF>
  </metadata>
  <g
     inkscape:label="Layer 1"
     inkscape:groupmode="layer"
     id="layer1"
     transform="translate(131.4966,-19.209992)">
    <g
       id="g1203">
      <ellipse
         ry="139.0849"
         rx="158.75809"
         cy="307.69077"
         cx="27.261492"
         id="path881"
         style="fill:#000000;stroke-width:0.22645892" />
      <path
         inkscape:connector-curvature="0"
         id="circle1059"
         d="m 27.261285,163.26054 a 158.75809,139.0849 0 0 0 -98.7671,30.19867 81.249937,88.733481 0 0 0 80.0586807,73.60637 81.249937,88.733481 0 0 0 81.2498093,-88.73307 81.249937,88.733481 0 0 0 -0.12454,-3.84165 158.75809,139.0849 0 0 0 -62.41685,-11.23032 z"
         style="fill:#ffffff;stroke-width:0.25318047" />
      <path
         inkscape:transform-center-y="-11.240461"
         inkscape:transform-center-x="5.5831338"
         style="fill:#ffccaa;stroke-width:0.22036751"
         d="m 24.676045,164.17742 a 138.18255,121.05907 0 0 0 -85.96658,26.28483 70.719696,77.233349 0 0 0 69.6828205,64.06676 70.719696,77.233349 0 0 0 70.7195935,-77.23299 70.719696,77.233349 0 0 0 -0.108399,-3.34376 138.18255,121.05907 0 0 0 -54.327435,-9.77484 z"
         id="path1085"
         inkscape:connector-curvature="0" />
      <path
         inkscape:connector-curvature="0"
         id="path1116"
         d="m 21.632812,160.21875 c -31.0284922,0.67659 -61.946175,10.37805 -87.318359,28.35937 3.871559,33.43109 30.131783,64.71251 64.3398439,69.22657 33.4168121,5.29844 67.1947631,-17.38435 78.4218751,-48.65235 4.751189,-12.05699 6.663806,-25.17622 5.816406,-38.0957 C 63.36252,163.76351 42.500903,159.8688 21.632812,160.21875 Z"
         style="fill:url(#linearGradient1160);fill-opacity:1;stroke-width:0.22036751" />
      <circle
         id="circle879"
         cx="5.47509"
         cy="161.40288"
         r="73.533058"
         style="fill:#4d4d4d;stroke-width:0.23396881;filter:url(#filter1140)" />
      <circle
         style="fill:#ffccaa;fill-opacity:1;stroke-width:0.26458332"
         r="83.154762"
         cy="144.29761"
         cx="2.2678573"
         id="path10" />
      <circle
         id="circle942"
         cx="2.2678573"
         cy="144.29761"
         r="83.154762"
         style="fill:url(#linearGradient958);fill-opacity:1;stroke-width:0.26458332" />
      <path
         id="circle12"
         transform="scale(0.26458333)"
         d="m 179.14258,74.625 c 11.34986,5.760601 18.65038,12.844682 21.55273,20.910156 8.04668,22.629554 -33.86673,47.384664 -93.28125,68.503904 C 74.75519,154.00764 40.639102,148.8211 6.3476562,149.23438 c -1.3638601,-0.0185 -2.7277202,-0.0273 -4.0898437,-0.0273 -172.9896825,-1e-4 -331.4291625,149.92104 -337.8906225,323.50195 -3.59182,53.20842 25.2615,117.64743 46.24609,166.40821 -0.27084,-4.68125 -0.43692,-9.36799 -0.49805,-14.05664 1.9e-4,-106.43262 24.62269,-186.44291 81.81641,-229.16602 a 153.54318,62.629458 14.063004 0 0 61.875,21.70508 153.54318,62.629458 14.063004 0 0 164.160157,-23.44336 153.54318,62.629458 14.063004 0 0 0.01563,-0.0937 153.54318,54.548235 25.907377 0 1 -127.416007,-5.36914 153.54318,62.629458 4.0631308 0 0 27.724601,3.04492 153.54318,62.629458 4.0631308 0 0 157.595703,-51.5918 153.54318,62.629458 4.0631308 0 0 -0.002,-0.0976 153.54318,54.548235 15.907504 0 1 -120.09375,17.95703 C 97.539911,316.01666 201.6791,265.59829 222.53902,414.11343 c 8.14359,74.45635 83.31816,88.83886 83.31836,204.88672 -0.0102,10.26962 -1.53906,30.75195 -1.53906,30.75195 57.99902,-120.72661 56.13571,-280.96012 -35.28516,-381.18945 -6.08481,-6.95991 -12.45475,-13.66983 -19.08398,-20.11523 0.14403,-0.11142 0.3005,-0.22477 0.44336,-0.33594 54.99601,-33.11056 44.9206,-127.54096 21.7598,-149.242339 C 267.87725,178.83614 242.81465,198.8143 217.8457,211.68164 255.08186,170.57889 232.05237,110.15251 219.0293,95.287109 209.16244,84.024421 198.9885,78.049358 179.14258,74.625 Z"
         style="fill:#241c1c;stroke-width:0.99999994"
         inkscape:connector-curvature="0" />
      <path
         inkscape:connector-curvature="0"
         style="fill:url(#radialGradient877);fill-opacity:1;stroke-width:0.26458332"
         d="m 46.863604,19.209992 c 3.00298,1.524159 4.93458,3.398489 5.70249,5.532479 2.12902,5.987402 -8.96057,12.537192 -24.68066,18.124991 -8.641,-2.654147 -17.66754,-4.026419 -26.74049,-3.917072 -0.36085004,-0.0049 -0.72171004,-0.0072 -1.08210004,-0.0072 -45.77018996,-2.7e-5 -87.69062996,39.666608 -89.40022996,85.59323 -0.95034,14.07806 6.68377,31.12755 12.23594,44.02884 -0.0716,-1.23859 -0.1156,-2.47862 -0.13177,-3.71916 5e-5,-28.16029 6.51475,-49.32968 21.64726,-60.63351 a 40.624966,16.570711 14.063004 0 0 16.37109,5.74281 40.624966,16.570711 14.063004 0 0 43.43404,-6.20273 40.624966,16.570711 14.063004 0 0 0.004,-0.0248 40.624966,14.432554 25.907377 0 1 -33.71216,-1.42059 40.624966,16.570711 4.0631308 0 0 7.33547,0.80564 40.624966,16.570711 4.0631308 0 0 41.6972,-13.650335 40.624966,16.570711 4.0631308 0 0 -5.2e-4,-0.02584 40.624966,14.432554 15.907504 0 1 -31.7748,4.751131 c 37.5044,-11.109683 65.0579,-24.449543 70.57708,14.845084 2.15466,19.69991 22.0446,23.50528 22.04465,54.20961 -0.003,2.71717 -0.40721,8.13646 -0.40721,8.13646 15.345576,-31.94225 14.852575,-74.337367 -9.33586,-100.856376 -1.60994,-1.841477 -3.29532,-3.61681 -5.04931,-5.322155 0.0381,-0.02948 0.0795,-0.05947 0.11731,-0.08888 14.55102,-8.760463 11.88523,-33.745172 5.75727,-39.486995 -1.13112,21.157934 -7.76226,26.443822 -14.36863,29.848306 9.85206,-10.875102 3.75885,-26.862915 0.31316,-30.796052 -2.61061,-2.97992 -5.30246,-4.560822 -10.55336,-5.46685 z"
         id="path61" />
      <path
         inkscape:connector-curvature="0"
         id="path966"
         d="M -14.232453,399.15992 32.16284,341.76368 H 12.552453 l 37.307566,-46.3953 -33.002842,-0.47829 -20.5669841,54.04812 H 15.422273 Z"
         style="fill:#ffd42a;stroke:#ff6600;stroke-width:3.92562294;stroke-linecap:butt;stroke-linejoin:miter;stroke-miterlimit:4;stroke-dasharray:none;stroke-opacity:1" />
      <g
         transform="translate(-4.535712,9.0714282)"
         id="g1184">
        <path
           style="fill:#000000;stroke:none;stroke-width:0.47247019;stroke-miterlimit:4;stroke-dasharray:none"
           d="m -1.3661085,125.3988 c 0,16.70004 -13.5380535,30.2381 -30.2380915,30.2381 -16.700038,0 -30.238091,-13.53806 -30.238091,-30.2381 z"
           id="path1171"
           inkscape:connector-curvature="0"
           sodipodi:nodetypes="cscc" />
        <path
           sodipodi:nodetypes="cscc"
           inkscape:connector-curvature="0"
           id="path1180"
           d="m 59.272067,125.3988 c 0,16.70004 -13.538053,30.2381 -30.238091,30.2381 -16.700038,0 -30.2380922,-13.53806 -30.2380922,-30.2381 z"
           style="fill:#000000;stroke:none;stroke-width:0.47247019;stroke-miterlimit:4;stroke-dasharray:none" />
      </g>
    </g>
  </g>
</svg>
