<?xml version="1.0" encoding="UTF-8" standalone="no"?>
<!-- Created with Inkscape (http://www.inkscape.org/) -->

<svg
   xmlns:dc="http://purl.org/dc/elements/1.1/"
   xmlns:cc="http://creativecommons.org/ns#"
   xmlns:rdf="http://www.w3.org/1999/02/22-rdf-syntax-ns#"
   xmlns:svg="http://www.w3.org/2000/svg"
   xmlns="http://www.w3.org/2000/svg"
   xmlns:sodipodi="http://sodipodi.sourceforge.net/DTD/sodipodi-0.dtd"
   xmlns:inkscape="http://www.inkscape.org/namespaces/inkscape"
   width="553.61096"
   height="553.21643"
   viewBox="0 0 146.47623 146.37186"
   version="1.1"
   id="svg8"
   inkscape:version="0.92.2 (5c3e80d, 2017-08-06)"
   sodipodi:docname="flatDesktop.svg"
   inkscape:export-filename="/home/bobby/public_html/profile/images/feature.png"
   inkscape:export-xdpi="46.340939"
   inkscape:export-ydpi="46.340939">
  <defs
     id="defs2" />
  <sodipodi:namedview
     id="base"
     pagecolor="#ffffff"
     bordercolor="#666666"
     borderopacity="1.0"
     inkscape:pageopacity="0.0"
     inkscape:pageshadow="2"
     inkscape:zoom="0.25"
     inkscape:cx="1069.908"
     inkscape:cy="-319.52359"
     inkscape:document-units="px"
     inkscape:current-layer="layer1"
     showgrid="false"
     showborder="false"
     units="px"
     inkscape:object-paths="false"
     inkscape:object-nodes="false"
     inkscape:snap-nodes="true"
     inkscape:window-width="1920"
     inkscape:window-height="1020"
     inkscape:window-x="1280"
     inkscape:window-y="31"
     inkscape:window-maximized="1"
     fit-margin-top="0"
     fit-margin-left="0"
     fit-margin-right="0"
     fit-margin-bottom="0"
     inkscape:snap-text-baseline="true" />
  <metadata
     id="metadata5">
    <rdf:RDF>
      <cc:Work
         rdf:about="">
        <dc:format>image/svg+xml</dc:format>
        <dc:type
           rdf:resource="http://purl.org/dc/dcmitype/StillImage" />
        <dc:title></dc:title>
      </cc:Work>
    </rdf:RDF>
  </metadata>
  <g
     inkscape:label="orgin"
     inkscape:groupmode="layer"
     id="layer1"
     transform="translate(-45.824388,-116.71231)">
    <text
       xml:space="preserve"
       style="font-style:normal;font-weight:normal;font-size:10.58333397px;line-height:1.25;font-family:sans-serif;letter-spacing:0px;word-spacing:0px;fill:#000000;fill-opacity:1;stroke:none;stroke-width:0.26458335"
       x="492.96265"
       y="344.04736"
       id="text5667"><tspan
         sodipodi:role="line"
         id="tspan5665"
         x="492.96265"
         y="353.41113"
         style="stroke-width:0.26458335" /></text>
    <g
       id="g6056">
      <path
         inkscape:connector-curvature="0"
         id="ellipse5334"
         d="m 278.18719,225.3141 v 27.02428 a 45.996245,6.8677579 0 0 0 -38.11808,6.76546 45.996245,6.8677579 0 0 0 45.99601,6.86743 45.996245,6.8677579 0 0 0 45.996,-6.86743 45.996245,6.8677579 0 0 0 -38.64716,-6.77107 V 225.3141 Z"
         style="fill:#b3b3b3;fill-opacity:1;stroke:#e6e6e6;stroke-width:0.34709817;stroke-opacity:1" />
      <rect
         id="rect232"
         width="258.02942"
         height="164.00626"
         x="157.99255"
         y="62.829994"
         style="fill:#b3b3b3;fill-opacity:1;stroke-width:0.53422236"
         ry="6.4106684" />
      <rect
         ry="6.4106684"
         style="fill:#e6e6e6;fill-opacity:1;stroke-width:0.53422236"
         y="59.619591"
         x="154.78723"
         height="164.00626"
         width="258.02942"
         id="rect230" />
      <rect
         id="rect5261"
         width="247.34496"
         height="157.21512"
         x="160.54048"
         y="63.749847"
         style="fill:#000000;fill-opacity:1;stroke-width:0.51210135"
         ry="6.1452169" />
      <path
         style="opacity:1;fill:#f2f2f2;fill-opacity:1;stroke-width:0.5849272"
         d="M 166.19937,69.878526 H 402.2266 l 4e-5,144.957794 H 166.19937 Z"
         id="path130"
         inkscape:connector-curvature="0" />
      <path
         inkscape:connector-curvature="0"
         id="path132"
         d="M 166.19937,69.878467 H 402.2266 l 4e-5,21.589475 H 166.19937 Z"
         style="opacity:1;fill:#ffb380;fill-opacity:1;stroke-width:0.22573668" />
      <path
         style="opacity:1;fill:#ffb380;fill-opacity:1;stroke-width:0.15577318"
         d="M 166.19937,204.5556 H 402.2266 l 4e-5,10.28072 H 166.19937 Z"
         id="path134"
         inkscape:connector-curvature="0" />
      <path
         style="opacity:1;fill:#f2f2f2;fill-opacity:1;stroke-width:0.65106368"
         d="m 196.16048,74.427941 h 176.10511 c 3.52253,0 6.35837,2.785385 6.35837,6.245274 0,3.459888 -2.83584,6.245292 -6.35837,6.245292 H 196.16048 c -3.52254,0 -6.35838,-2.785404 -6.35838,-6.245292 0,-3.459889 2.83584,-6.245274 6.35838,-6.245274 z"
         id="rect136"
         inkscape:connector-curvature="0" />
      <path
         inkscape:connector-curvature="0"
         style="opacity:1;fill:#cccccc;fill-opacity:1;stroke-width:0.14616345"
         d="M 183.66534,190.03412 H 297.9026 v 4.62629 H 183.66534 Z"
         id="path140" />
      <path
         id="path142"
         d="m 304.5113,190.03412 h 80.24934 v 4.62629 H 304.5113 Z"
         style="opacity:1;fill:#cccccc;fill-opacity:1;stroke-width:0.12250549"
         inkscape:connector-curvature="0" />
      <g
         transform="matrix(3.568286,0,0,1.9428082,-657.06371,-247.09816)"
         id="g148"
         style="fill:#cccccc">
        <path
           inkscape:connector-curvature="0"
           style="opacity:1;fill:#cccccc;fill-opacity:1;stroke-width:0.0555129"
           d="m 235.61146,228.73747 h 32.0146 v 2.38124 h -32.0146 z"
           id="path144" />
        <path
           id="path146"
           d="m 269.47813,228.73747 h 22.4896 v 2.38124 h -22.4896 z"
           style="opacity:1;fill:#cccccc;fill-opacity:1;stroke-width:0.04652761"
           inkscape:connector-curvature="0" />
      </g>
      <path
         style="opacity:1;fill:#000000;fill-opacity:0;stroke-width:0.69663811"
         d="m 191.69027,174.80584 h 14.63369 v 15.2283 h -14.63369 z"
         id="rect160"
         inkscape:connector-curvature="0" />
      <path
         style="fill:#e6e6e6;fill-opacity:1;stroke-width:0.47152713"
         d="M 168.06786,92.557275 H 400.09469 V 140.17282 H 168.06786 Z"
         id="rect4105"
         inkscape:connector-curvature="0" />
      <path
         style="fill:#ffb380;fill-opacity:1;stroke-width:0.51866746"
         d="m 242.03139,96.944096 h 12.03685 c 3.47918,0 6.28011,2.751114 6.28011,6.168414 v 8.22455 c 0,3.4173 -2.80093,6.16842 -6.28011,6.16842 h -12.03685 c -3.47919,0 -6.28011,-2.75112 -6.28011,-6.16842 v -8.22455 c 0,-3.4173 2.80092,-6.168414 6.28011,-6.168414 z"
         id="rect388"
         inkscape:connector-curvature="0" />
      <path
         style="fill:#808080;fill-opacity:1;stroke-width:0.53263712"
         d="m 266.62845,97.05812 h 55.37808 v 9.59026 h -55.37808 z"
         id="rect390"
         inkscape:connector-curvature="0" />
      <path
         style="fill:#ffb380;fill-opacity:1;stroke-width:0.41217294"
         d="m 267.30506,109.49382 h 65.36967 v 4.86507 h -65.36967 z"
         id="rect392"
         inkscape:connector-curvature="0" />
      <g
         transform="matrix(1.9779857,0,0,1.9428082,512.01247,-326.96848)"
         id="g4103">
        <path
           style="fill:#ffb380;fill-opacity:1;stroke-width:0.21265493"
           d="m -163.30968,232.23245 h 22.19746 v 3.81376 h -22.19746 z"
           id="rect4091"
           inkscape:connector-curvature="0" />
        <path
           style="fill:#ffb380;fill-opacity:1;stroke-width:0.21265493"
           d="m -138.61397,232.23245 h 22.19746 v 3.81376 h -22.19746 z"
           id="rect4093"
           inkscape:connector-curvature="0" />
        <path
           style="fill:#ffb380;fill-opacity:1;stroke-width:0.21265493"
           d="m -113.91828,232.23245 h 22.197459 v 3.81376 h -22.197459 z"
           id="rect4095"
           inkscape:connector-curvature="0" />
        <path
           style="fill:#ffb380;fill-opacity:1;stroke-width:0.21265493"
           d="m -89.222572,232.23245 h 22.19746 v 3.81376 h -22.19746 z"
           id="rect4097"
           inkscape:connector-curvature="0" />
      </g>
      <g
         transform="matrix(1.9779857,0,0,1.9428082,507.80616,-326.96848)"
         id="g4128">
        <path
           style="opacity:1;fill:#e6e6e6;fill-opacity:1;stroke-width:0.61629188"
           d="m -163.51917,246.24603 h 24.58553 v 14.42527 h -24.58553 z"
           id="rect162"
           inkscape:connector-curvature="0" />
        <path
           style="fill:#b3b3b3;fill-opacity:1;stroke:#b3b3b3;stroke-width:0.26458332"
           d="m -141.07718,251.67175 a 2.1515198,2.4321527 0 0 1 -2.15152,2.43216 2.1515198,2.4321527 0 0 1 -2.15152,-2.43216 2.1515198,2.4321527 0 0 1 2.15152,-2.43215 2.1515198,2.4321527 0 0 1 2.15152,2.43215 z"
           id="path4111"
           inkscape:connector-curvature="0" />
        <path
           style="fill:#b3b3b3;stroke:#b3b3b3;stroke-width:0.26791289px;stroke-linecap:butt;stroke-linejoin:miter;stroke-opacity:1"
           d="m -163.37755,260.50406 3.6044,-5.81094 2.77924,3.73497 6.20692,-4.50976 11.75748,4.35821 v 2.42123 z"
           id="path4115"
           inkscape:connector-curvature="0" />
      </g>
      <g
         transform="matrix(1.9779857,0,0,1.9428082,583.29815,-326.96848)"
         id="g4136">
        <path
           style="opacity:1;fill:#e6e6e6;fill-opacity:1;stroke-width:0.61629188"
           d="m -163.51917,246.24603 h 24.58553 v 14.42527 h -24.58553 z"
           id="rect4130"
           inkscape:connector-curvature="0" />
        <path
           style="fill:#b3b3b3;fill-opacity:1;stroke:#b3b3b3;stroke-width:0.26458332"
           d="m -141.07718,251.67175 a 2.1515198,2.4321527 0 0 1 -2.15152,2.43216 2.1515198,2.4321527 0 0 1 -2.15152,-2.43216 2.1515198,2.4321527 0 0 1 2.15152,-2.43215 2.1515198,2.4321527 0 0 1 2.15152,2.43215 z"
           id="ellipse4132"
           inkscape:connector-curvature="0" />
        <path
           inkscape:connector-curvature="0"
           id="path4134"
           d="m -163.37755,260.50406 3.6044,-5.81094 2.77924,3.73497 6.20692,-4.50976 11.75748,4.35821 v 2.42123 z"
           style="fill:#b3b3b3;stroke:#b3b3b3;stroke-width:0.26791289px;stroke-linecap:butt;stroke-linejoin:miter;stroke-opacity:1" />
      </g>
      <g
         id="g4144"
         transform="matrix(1.9779857,0,0,1.9428082,658.79012,-326.96848)">
        <path
           style="opacity:1;fill:#e6e6e6;fill-opacity:1;stroke-width:0.61629188"
           d="m -163.51917,246.24603 h 24.58553 v 14.42527 h -24.58553 z"
           id="rect4138"
           inkscape:connector-curvature="0" />
        <path
           style="fill:#b3b3b3;fill-opacity:1;stroke:#b3b3b3;stroke-width:0.26458332"
           d="m -141.07718,251.67175 a 2.1515198,2.4321527 0 0 1 -2.15152,2.43216 2.1515198,2.4321527 0 0 1 -2.15152,-2.43216 2.1515198,2.4321527 0 0 1 2.15152,-2.43215 2.1515198,2.4321527 0 0 1 2.15152,2.43215 z"
           id="ellipse4140"
           inkscape:connector-curvature="0" />
        <path
           style="fill:#b3b3b3;stroke:#b3b3b3;stroke-width:0.26791289px;stroke-linecap:butt;stroke-linejoin:miter;stroke-opacity:1"
           d="m -163.37755,260.50406 3.6044,-5.81094 2.77924,3.73497 6.20692,-4.50976 11.75748,4.35821 v 2.42123 z"
           id="path4142"
           inkscape:connector-curvature="0" />
      </g>
      <path
         inkscape:export-ydpi="69.028908"
         inkscape:export-xdpi="69.028908"
         inkscape:export-filename="/home/bobby/public_html/profile/images/logo.png"
         id="path4514"
         d="m 138.4794,178.51729 c -2.20015,-0.0244 -3.97814,0.29596 -5.19658,0.99942 l -79.999767,46.18788 -7.436239,-4.55476 v 10.31875 c -0.498298,4.45087 7.394419,12.43256 20.299018,19.88302 15.867669,9.1612 33.126339,13.9475 38.696348,10.73165 l 85.725,-49.49362 c 0.46958,-0.27112 0.83833,-0.59143 1.11466,-0.95395 l 0.004,-0.001 0.002,-0.007 c 0.47624,-0.62919 0.66913,-1.3879 0.59635,-2.25412 l 0.001,-0.005 0.0119,-10.12134 -6.37119,0.9002 v 0.005 c -3.46006,-3.16818 -8.20374,-6.58787 -13.94702,-9.90375 -12.39661,-7.15718 -25.64206,-11.64393 -33.49976,-11.73107 z"
         style="opacity:1;fill:#b3b3b3;fill-opacity:1;stroke-width:0.26458332"
         inkscape:connector-curvature="0" />
      <path
         inkscape:export-ydpi="69.028908"
         inkscape:export-xdpi="69.028908"
         inkscape:export-filename="/home/bobby/public_html/profile/images/logo.png"
         inkscape:connector-curvature="0"
         id="rect3700"
         d="m 171.97917,179.92977 c 15.86766,9.1612 24.15783,19.12539 18.58782,22.34124 l -85.725,49.49335 C 99.271982,254.98021 82.013498,250.19388 66.14583,241.03268 50.278175,231.87149 41.988007,221.90729 47.558017,218.69145 l 85.725003,-49.49336 c 5.57001,-3.21584 22.82849,1.57049 38.69615,10.73168 z"
         style="opacity:1;fill:#e6e6e6;fill-opacity:1;stroke-width:0.26458332" />
      <path
         inkscape:export-ydpi="69.028908"
         inkscape:export-xdpi="69.028908"
         inkscape:export-filename="/home/bobby/public_html/profile/images/logo.png"
         inkscape:connector-curvature="0"
         id="rect4507"
         d="m 127.30533,174.25807 54.49752,31.46417 -70.98316,40.98214 -54.497521,-31.46417 z"
         style="opacity:1;fill:#333333;fill-opacity:1;stroke-width:0.21134923" />
      <path
         inkscape:export-ydpi="69.028908"
         inkscape:export-xdpi="69.028908"
         inkscape:export-filename="/home/bobby/public_html/profile/images/logo.png"
         inkscape:connector-curvature="0"
         id="path4509"
         d="m 77.978643,238.69892 a 3.3831434,5.9800168 83.051057 0 1 -8.393232,0.34792 3.3831434,5.9800168 83.051057 0 1 0.602606,-4.84584 3.3831434,5.9800168 83.051057 0 1 8.393224,-0.34791 3.3831434,5.9800168 83.051057 0 1 -0.602598,4.84583 z"
         style="opacity:1;fill:#b3b3b3;fill-opacity:1;stroke-width:0.26458332" />
      <path
         inkscape:export-ydpi="69.028908"
         inkscape:export-xdpi="69.028908"
         inkscape:export-filename="/home/bobby/public_html/profile/images/logo.png"
         id="path4993"
         d="m 138.74398,168.72771 c -2.20015,-0.0244 -3.97814,0.29596 -5.19658,0.99942 l -70.140418,40.49572 47.256028,27.28309 77.79008,-44.9125 c -3.50099,-3.75214 -9.08862,-8.02351 -16.20935,-12.13466 -12.39661,-7.15718 -25.64206,-11.64393 -33.49976,-11.73107 z"
         style="color:#000000;font-style:normal;font-variant:normal;font-weight:normal;font-stretch:normal;font-size:medium;line-height:normal;font-family:sans-serif;font-variant-ligatures:normal;font-variant-position:normal;font-variant-caps:normal;font-variant-numeric:normal;font-variant-alternates:normal;font-feature-settings:normal;text-indent:0;text-align:start;text-decoration:none;text-decoration-line:none;text-decoration-style:solid;text-decoration-color:#000000;letter-spacing:normal;word-spacing:normal;text-transform:none;writing-mode:lr-tb;direction:ltr;text-orientation:mixed;dominant-baseline:auto;baseline-shift:baseline;text-anchor:start;white-space:normal;shape-padding:0;clip-rule:nonzero;display:inline;overflow:visible;visibility:visible;opacity:0.43500001;isolation:auto;mix-blend-mode:normal;color-interpolation:sRGB;color-interpolation-filters:linearRGB;solid-color:#000000;solid-opacity:1;vector-effect:none;fill:#000000;fill-opacity:1;fill-rule:nonzero;stroke:none;stroke-width:26.45833015;stroke-linecap:butt;stroke-linejoin:miter;stroke-miterlimit:4;stroke-dasharray:none;stroke-dashoffset:0;stroke-opacity:1;color-rendering:auto;image-rendering:auto;shape-rendering:auto;text-rendering:auto;enable-background:accumulate"
         inkscape:connector-curvature="0" />
      <g
         inkscape:export-ydpi="69.028908"
         inkscape:export-xdpi="69.028908"
         inkscape:export-filename="/home/bobby/public_html/profile/images/logo.png"
         transform="matrix(0.8660254,0.5,-1,0.57735027,116.89934,-78.38576)"
         id="g4661">
        <path
           inkscape:connector-curvature="0"
           id="path4525"
           d="m 230.18751,188.5208 h 66.14583 l 10e-6,74.61251 h -66.14584 z"
           style="opacity:1;fill:#f2f2f2;fill-opacity:1;stroke-width:0.22215548" />
        <path
           style="opacity:1;fill:#37abc8;fill-opacity:1;stroke-width:0.08573484"
           d="m 230.18751,188.52077 h 66.14583 l 10e-6,11.11251 h -66.14584 z"
           id="path4527"
           inkscape:connector-curvature="0" />
        <path
           inkscape:connector-curvature="0"
           id="path4529"
           d="m 230.18751,257.84163 h 66.14583 l 10e-6,5.29168 h -66.14584 z"
           style="opacity:1;fill:#37abc8;fill-opacity:1;stroke-width:0.05916269" />
        <path
           id="rect4535"
           d="m 240.01666,190.86249 h 46.48755 c 1.78087,0 3.21456,1.43369 3.21456,3.21456 0,1.78087 -1.43369,3.21457 -3.21456,3.21457 h -46.48755 c -1.78087,0 -3.21457,-1.4337 -3.21457,-3.21457 0,-1.78087 1.4337,-3.21456 3.21457,-3.21456 z"
           style="opacity:1;fill:#b1dfe9;fill-opacity:1;stroke-width:0.24727413"
           inkscape:connector-curvature="0" />
        <path
           style="opacity:1;fill:#0088aa;fill-opacity:1;stroke-width:0.2284649"
           d="m 234.55313,202.3122 h 57.4146 v 22.48958 h -57.4146 z"
           id="rect4537"
           inkscape:connector-curvature="0" />
        <g
           id="g4548"
           style="fill:#cccccc"
           transform="translate(-0.26458333,-1.2567721)">
          <path
             inkscape:connector-curvature="0"
             style="opacity:1;fill:#cccccc;fill-opacity:1;stroke-width:0.0555129"
             d="m 235.61146,228.73747 h 32.0146 v 2.38124 h -32.0146 z"
             id="path4540" />
          <path
             id="path4544"
             d="m 269.47813,228.73747 h 22.4896 v 2.38124 h -22.4896 z"
             style="opacity:1;fill:#cccccc;fill-opacity:1;stroke-width:0.04652761"
             inkscape:connector-curvature="0" />
        </g>
        <g
           style="fill:#cccccc"
           id="g4554"
           transform="translate(-0.26458333,3.8033842)">
          <path
             id="path4550"
             d="m 235.61146,228.73747 h 32.0146 v 2.38124 h -32.0146 z"
             style="opacity:1;fill:#cccccc;fill-opacity:1;stroke-width:0.0555129"
             inkscape:connector-curvature="0" />
          <path
             inkscape:connector-curvature="0"
             style="opacity:1;fill:#cccccc;fill-opacity:1;stroke-width:0.04652761"
             d="m 269.47813,228.73747 h 22.4896 v 2.38124 h -22.4896 z"
             id="path4552" />
        </g>
        <g
           transform="translate(-0.26458333,8.8635404)"
           id="g4560"
           style="fill:#cccccc">
          <path
             inkscape:connector-curvature="0"
             style="opacity:1;fill:#cccccc;fill-opacity:1;stroke-width:0.0555129"
             d="m 235.61146,228.73747 h 32.0146 v 2.38124 h -32.0146 z"
             id="path4556" />
          <path
             id="path4558"
             d="m 269.47813,228.73747 h 22.4896 v 2.38124 h -22.4896 z"
             style="opacity:1;fill:#cccccc;fill-opacity:1;stroke-width:0.04652761"
             inkscape:connector-curvature="0" />
        </g>
        <g
           style="fill:#cccccc"
           id="g4566"
           transform="translate(-0.26458333,13.923697)">
          <path
             id="path4562"
             d="m 235.61146,228.73747 h 32.0146 v 2.38124 h -32.0146 z"
             style="opacity:1;fill:#cccccc;fill-opacity:1;stroke-width:0.0555129"
             inkscape:connector-curvature="0" />
          <path
             inkscape:connector-curvature="0"
             style="opacity:1;fill:#cccccc;fill-opacity:1;stroke-width:0.04652761"
             d="m 269.47813,228.73747 h 22.4896 v 2.38124 h -22.4896 z"
             id="path4564" />
        </g>
        <g
           transform="translate(-0.26458333,18.983853)"
           id="g4572"
           style="fill:#cccccc">
          <path
             inkscape:connector-curvature="0"
             style="opacity:1;fill:#cccccc;fill-opacity:1;stroke-width:0.0555129"
             d="m 235.61146,228.73747 h 32.0146 v 2.38124 h -32.0146 z"
             id="path4568" />
          <path
             id="path4570"
             d="m 269.47813,228.73747 h 22.4896 v 2.38124 h -22.4896 z"
             style="opacity:1;fill:#cccccc;fill-opacity:1;stroke-width:0.04652761"
             inkscape:connector-curvature="0" />
        </g>
        <g
           style="fill:#cccccc"
           id="g4578"
           transform="translate(-0.26458333,24.044009)">
          <path
             id="path4574"
             d="m 235.61146,228.73747 h 32.0146 v 2.38124 h -32.0146 z"
             style="opacity:1;fill:#cccccc;fill-opacity:1;stroke-width:0.0555129"
             inkscape:connector-curvature="0" />
          <path
             inkscape:connector-curvature="0"
             style="opacity:1;fill:#cccccc;fill-opacity:1;stroke-width:0.04652761"
             d="m 269.47813,228.73747 h 22.4896 v 2.38124 h -22.4896 z"
             id="path4576" />
        </g>
        <g
           id="text4582"
           style="font-style:normal;font-variant:normal;font-weight:900;font-stretch:normal;font-size:10.58333302px;line-height:1.25;font-family:Montserrat;-inkscape-font-specification:'Montserrat Heavy';letter-spacing:0px;word-spacing:0px;fill:#ffffff;fill-opacity:1;stroke:none;stroke-width:0.26458332"
           aria-label="NEWS">
          <path
             id="path4773"
             style="font-style:normal;font-variant:normal;font-weight:900;font-stretch:normal;font-family:Montserrat;-inkscape-font-specification:'Montserrat Heavy';fill:#ffffff;stroke-width:0.26458332"
             d="m 250.95623,209.85282 v 3.3655 l -2.81516,-3.3655 h -2.05317 v 7.40833 h 2.43417 v -3.3655 l 2.81516,3.3655 h 2.05317 v -7.40833 z"
             inkscape:connector-curvature="0" />
          <path
             id="path4775"
             style="font-style:normal;font-variant:normal;font-weight:900;font-stretch:normal;font-family:Montserrat;-inkscape-font-specification:'Montserrat Heavy';fill:#ffffff;stroke-width:0.26458332"
             d="m 257.05951,215.37732 v -0.97367 h 3.13266 v -1.79916 h -3.13266 v -0.86784 h 3.56658 v -1.88383 h -6.02191 v 7.40833 h 6.15949 v -1.88383 z"
             inkscape:connector-curvature="0" />
          <path
             id="path4777"
             style="font-style:normal;font-variant:normal;font-weight:900;font-stretch:normal;font-family:Montserrat;-inkscape-font-specification:'Montserrat Heavy';fill:#ffffff;stroke-width:0.26458332"
             d="m 271.31592,209.85282 -1.36525,4.26508 -1.29117,-4.26508 h -2.29658 l -1.36525,4.21217 -1.29117,-4.21217 h -2.57175 l 2.37067,7.40833 h 2.67758 l 1.25942,-3.95816 1.19592,3.95816 h 2.67758 l 2.37067,-7.40833 z"
             inkscape:connector-curvature="0" />
          <path
             id="path4779"
             style="font-style:normal;font-variant:normal;font-weight:900;font-stretch:normal;font-family:Montserrat;-inkscape-font-specification:'Montserrat Heavy';fill:#ffffff;stroke-width:0.26458332"
             d="m 276.9828,217.43049 c 2.29658,0 3.45016,-1.143 3.45016,-2.49767 0,-2.7305 -4.09575,-1.98967 -4.09575,-2.87867 0,-0.254 0.23284,-0.46566 0.96309,-0.46566 0.64558,0 1.3335,0.17991 2.06375,0.55033 l 0.75141,-1.80975 c -0.77258,-0.43392 -1.79916,-0.64558 -2.794,-0.64558 -2.29658,0 -3.45016,1.12183 -3.45016,2.49766 0,2.76225 4.09575,2.01084 4.09575,2.94217 0,0.254 -0.254,0.40217 -0.96309,0.40217 -0.81491,0 -1.74625,-0.26459 -2.44475,-0.67734 l -0.80433,1.82034 c 0.74083,0.45508 1.98967,0.762 3.22792,0.762 z"
             inkscape:connector-curvature="0" />
        </g>
      </g>
      <path
         inkscape:export-ydpi="69.028908"
         inkscape:export-xdpi="69.028908"
         inkscape:export-filename="/home/bobby/public_html/profile/images/logo.png"
         id="path4769"
         d="m 127.72657,145.55031 -11.1125,6.41615 -51.984424,30.01315 45.307824,26.15861 63.09744,-36.4293 z"
         style="color:#000000;font-style:normal;font-variant:normal;font-weight:normal;font-stretch:normal;font-size:medium;line-height:normal;font-family:sans-serif;font-variant-ligatures:normal;font-variant-position:normal;font-variant-caps:normal;font-variant-numeric:normal;font-variant-alternates:normal;font-feature-settings:normal;text-indent:0;text-align:start;text-decoration:none;text-decoration-line:none;text-decoration-style:solid;text-decoration-color:#000000;letter-spacing:normal;word-spacing:normal;text-transform:none;writing-mode:lr-tb;direction:ltr;text-orientation:mixed;dominant-baseline:auto;baseline-shift:baseline;text-anchor:start;white-space:normal;shape-padding:0;clip-rule:nonzero;display:inline;overflow:visible;visibility:visible;opacity:0.553;isolation:auto;mix-blend-mode:normal;color-interpolation:sRGB;color-interpolation-filters:linearRGB;solid-color:#000000;solid-opacity:1;vector-effect:none;fill:#000000;fill-opacity:1;fill-rule:nonzero;stroke:none;stroke-width:26.45833015;stroke-linecap:butt;stroke-linejoin:miter;stroke-miterlimit:4;stroke-dasharray:none;stroke-dashoffset:0;stroke-opacity:1;color-rendering:auto;image-rendering:auto;shape-rendering:auto;text-rendering:auto;enable-background:accumulate"
         inkscape:connector-curvature="0" />
      <g
         inkscape:export-ydpi="69.028908"
         inkscape:export-xdpi="69.028908"
         inkscape:export-filename="/home/bobby/public_html/profile/images/logo.png"
         transform="matrix(0.8660254,0.5,-1,0.57735027,-6.2455406,-82.429697)"
         id="g4704">
        <path
           style="opacity:1;fill:#f2f2f2;fill-opacity:1;stroke-width:0.22215548"
           d="m 276.22501,105.70622 h 66.14583 l 1e-5,74.61251 h -66.14584 z"
           id="path4586"
           inkscape:connector-curvature="0" />
        <path
           inkscape:connector-curvature="0"
           id="path4588"
           d="m 276.22501,105.70619 h 66.14583 l 1e-5,11.11251 h -66.14584 z"
           style="opacity:1;fill:#ff0000;fill-opacity:1;stroke-width:0.08573484" />
        <path
           style="opacity:1;fill:#ff0000;fill-opacity:1;stroke-width:0.05916269"
           d="m 276.22501,175.02705 h 66.14583 l 1e-5,5.29168 h -66.14584 z"
           id="path4590"
           inkscape:connector-curvature="0" />
        <rect
           ry="3.2145636"
           y="108.0479"
           x="282.8396"
           height="6.4291272"
           width="52.916679"
           id="rect4592"
           style="opacity:1;fill:#ffd5d5;fill-opacity:1;stroke-width:0.24727413" />
        <path
           inkscape:connector-curvature="0"
           id="path4594"
           d="m 280.59063,119.49762 h 57.4146 v 40.21666 h -57.4146 z"
           style="opacity:1;fill:#cccccc;fill-opacity:1;stroke-width:0.30551451" />
        <path
           inkscape:connector-curvature="0"
           style="opacity:1;fill:#cccccc;fill-opacity:1;stroke-width:0.0555129"
           d="m 281.11979,167.55257 h 32.0146 v 2.38124 h -32.0146 z"
           id="path4620" />
        <path
           id="path4622"
           d="m 314.98646,167.55257 h 22.4896 v 2.38124 h -22.4896 z"
           style="opacity:1;fill:#cccccc;fill-opacity:1;stroke-width:0.04652761"
           inkscape:connector-curvature="0" />
        <g
           transform="translate(45.508335,-57.447657)"
           id="g4630"
           style="fill:#cccccc">
          <path
             inkscape:connector-curvature="0"
             style="opacity:1;fill:#cccccc;fill-opacity:1;stroke-width:0.0555129"
             d="m 235.61146,228.73747 h 32.0146 v 2.38124 h -32.0146 z"
             id="path4626" />
          <path
             id="path4628"
             d="m 269.47813,228.73747 h 22.4896 v 2.38124 h -22.4896 z"
             style="opacity:1;fill:#cccccc;fill-opacity:1;stroke-width:0.04652761"
             inkscape:connector-curvature="0" />
        </g>
        <path
           style="opacity:1;fill:#656565;fill-opacity:1;stroke-width:0.10942765"
           d="m 280.59063,154.55491 h 57.4146 v 5.15937 h -57.4146 z"
           id="path4663"
           inkscape:connector-curvature="0" />
        <rect
           style="opacity:1;fill:#ffffff;fill-opacity:1;stroke-width:0.26458332"
           id="rect4665"
           width="46.566662"
           height="1.4552083"
           x="286.01459"
           y="156.407" />
        <circle
           style="opacity:1;fill:#ffffff;fill-opacity:1;stroke-width:0.26458332"
           id="path4670"
           cx="291.96771"
           cy="157.1346"
           r="1.4552083" />
        <circle
           style="opacity:1;fill:#656565;fill-opacity:1;stroke-width:0.49136901"
           id="path4672"
           cx="309.29794"
           cy="137.09242"
           r="10.31875" />
        <path
           sodipodi:type="star"
           style="opacity:1;fill:#cccccc;fill-opacity:1;stroke-width:0.26458332"
           id="path4674"
           sodipodi:sides="3"
           sodipodi:cx="308.50418"
           sodipodi:cy="135.73643"
           sodipodi:r1="4.3030396"
           sodipodi:r2="2.1515198"
           sodipodi:arg1="0.78539816"
           sodipodi:arg2="1.8325957"
           inkscape:flatsided="false"
           inkscape:rounded="0"
           inkscape:randomized="0"
           d="m 311.54689,138.77914 -3.59956,-0.9645 -3.59957,-0.9645 2.63507,-2.63506 2.63506,-2.63506 0.9645,3.59956 z"
           inkscape:transform-center-x="-1.6104122"
           transform="matrix(1.0585374,-1.0585374,1.0585374,1.0585374,-161.10256,319.97354)"
           inkscape:transform-center-y="-6.3984746e-06" />
        <rect
           style="opacity:1;fill:#000000;fill-opacity:0;stroke-width:0.26458332"
           id="rect4676"
           width="4.1010418"
           height="7.8382936"
           x="283.36874"
           y="159.71428" />
        <rect
           style="opacity:1;fill:#ffaaaa;fill-opacity:1;stroke-width:0.17252839"
           id="rect4680"
           width="5.1243095"
           height="5.4239583"
           x="280.59064"
           y="160.60725" />
        <path
           inkscape:connector-curvature="0"
           style="opacity:1;fill:#ffaaaa;fill-opacity:1;stroke-width:0.04652761"
           d="m 287.3375,162.12861 h 22.4896 v 2.38124 h -22.4896 z"
           id="path4684" />
      </g>
      <g
         transform="translate(-3.7051191)"
         id="g5375">
        <ellipse
           style="fill:#e6e6e6;fill-opacity:1;stroke:#e6e6e6;stroke-width:0.3333559;stroke-opacity:1"
           id="path5332"
           cx="286.06616"
           cy="256.99869"
           rx="46.003117"
           ry="6.3337622" />
        <rect
           style="fill:#e6e6e6;fill-opacity:1;stroke:#e6e6e6;stroke-width:0.38170835;stroke-opacity:1"
           id="rect5330"
           width="15.228709"
           height="30.30994"
           x="278.18723"
           y="226.89487"
           ry="0" />
      </g>
      <g
         transform="translate(20.108334,-242.35834)"
         id="g5915">
        <rect
           transform="matrix(-0.84287244,0.53811341,-0.92166163,-0.38799463,0,0)"
           ry="4.4108729"
           style="fill:#b3b3b3;fill-opacity:1;stroke-width:0.40517852"
           y="-764.03943"
           x="178.25151"
           height="112.84483"
           width="215.72313"
           id="rect5402" />
        <rect
           transform="matrix(-0.84287244,0.53811341,-0.92166163,-0.38799463,0,0)"
           id="rect5404"
           width="215.72313"
           height="112.84483"
           x="175.56749"
           y="-761.83405"
           style="fill:#e6e6e6;fill-opacity:1;stroke-width:0.40517852"
           ry="4.4108729" />
        <rect
           transform="matrix(-0.84287244,0.53811341,-0.92166163,-0.38799463,0,0)"
           ry="4.2282286"
           style="fill:#333333;fill-opacity:1;stroke-width:0.38840094"
           y="-759.78046"
           x="180.64804"
           height="108.17216"
           width="206.79047"
           id="rect5406" />
        <g
           transform="matrix(0.92166164,0.38799463,-1.0241607,0.65385292,317.51739,-24.996054)"
           id="g5849"
           style="opacity:0.67600002">
          <g
             aria-label="SPORTS"
             transform="scale(0.81685906,1.2242014)"
             style="font-style:normal;font-variant:normal;font-weight:bold;font-stretch:normal;font-size:22.07987404px;line-height:1.25;font-family:sans-serif;-inkscape-font-specification:'sans-serif Bold';letter-spacing:0px;word-spacing:0px;fill:#ffffff;fill-opacity:1;stroke:none;stroke-width:0.25874853"
             id="text5847">
            <path
               style="font-style:normal;font-variant:normal;font-weight:bold;font-stretch:normal;font-size:22.07987404px;font-family:sans-serif;-inkscape-font-specification:'sans-serif Bold';fill:#000000;stroke-width:0.97794718"
               d="m -76.990234,818.80859 -96.080076,61.3418 -503.28125,321.30861 h -0.002 l -45.75195,29.2109 355.54492,149.6739 549.03321,-350.5196 96.08203,-61.33982 z"
               transform="matrix(0.21178511,-0.08385623,0.33172902,0.19919624,314.89066,68.249204)"
               id="path5861"
               inkscape:connector-curvature="0" />
          </g>
        </g>
        <g
           id="g5692"
           transform="matrix(0.92166164,0.38799463,-1.0241607,0.65385292,313.77562,-43.330744)">
          <path
             inkscape:connector-curvature="0"
             id="path5563"
             d="m 465.77962,291.1262 h 102.06685 l 2e-5,166.6601 H 465.77962 Z"
             style="opacity:1;fill:#f2f2f2;fill-opacity:1;stroke-width:0.41243753" />
          <path
             style="opacity:1;fill:#37abc8;fill-opacity:1;stroke-width:0.15916899"
             d="m 465.77962,291.12613 h 102.06685 l 2e-5,24.82174 H 465.77962 Z"
             id="path5565"
             inkscape:connector-curvature="0" />
          <path
             inkscape:connector-curvature="0"
             id="path5567"
             d="m 465.77962,445.96641 h 102.06685 l 2e-5,11.81989 H 465.77962 Z"
             style="opacity:1;fill:#37abc8;fill-opacity:1;stroke-width:0.1098371" />
          <path
             id="path5569"
             d="m 480.94657,296.35677 h 71.73298 c 2.74799,0 4.96026,3.2024 4.96026,7.18028 0,3.97789 -2.21227,7.18031 -4.96026,7.18031 h -71.73298 c -2.74799,0 -4.96027,-3.20242 -4.96027,-7.18031 0,-3.97788 2.21228,-7.18028 4.96027,-7.18028 z"
             style="opacity:1;fill:#b1dfe9;fill-opacity:1;stroke-width:0.45907095"
             inkscape:connector-curvature="0" />
          <path
             style="opacity:1;fill:#0088aa;fill-opacity:1;stroke-width:0.42415112"
             d="m 472.51602,321.9317 h 88.59406 v 50.23442 h -88.59406 z"
             id="path5571"
             inkscape:connector-curvature="0" />
          <path
             id="path5573"
             d="m 473.74082,378.14995 h 49.40038 v 5.31892 h -49.40038 z"
             style="opacity:1;fill:#cccccc;fill-opacity:1;stroke-width:0.10306117"
             inkscape:connector-curvature="0" />
          <path
             inkscape:connector-curvature="0"
             style="opacity:1;fill:#cccccc;fill-opacity:1;stroke-width:0.08637974"
             d="m 525.99905,378.14995 h 34.70276 v 5.31892 h -34.70276 z"
             id="path5575" />
          <path
             inkscape:connector-curvature="0"
             style="opacity:1;fill:#cccccc;fill-opacity:1;stroke-width:0.10306117"
             d="m 473.74082,389.45269 h 49.40038 v 5.31892 h -49.40038 z"
             id="path5579" />
          <path
             id="path5581"
             d="m 525.99905,389.45269 h 34.70276 v 5.31892 h -34.70276 z"
             style="opacity:1;fill:#cccccc;fill-opacity:1;stroke-width:0.08637974"
             inkscape:connector-curvature="0" />
          <path
             id="path5585"
             d="m 473.74082,400.75544 h 49.40038 v 5.31892 h -49.40038 z"
             style="opacity:1;fill:#cccccc;fill-opacity:1;stroke-width:0.10306117"
             inkscape:connector-curvature="0" />
          <path
             inkscape:connector-curvature="0"
             style="opacity:1;fill:#cccccc;fill-opacity:1;stroke-width:0.08637974"
             d="m 525.99905,400.75544 h 34.70276 v 5.31892 h -34.70276 z"
             id="path5587" />
          <path
             inkscape:connector-curvature="0"
             style="opacity:1;fill:#cccccc;fill-opacity:1;stroke-width:0.10306117"
             d="m 473.74082,412.05819 h 49.40038 v 5.31891 h -49.40038 z"
             id="path5591" />
          <path
             id="path5593"
             d="m 525.99905,412.05819 h 34.70276 v 5.31891 h -34.70276 z"
             style="opacity:1;fill:#cccccc;fill-opacity:1;stroke-width:0.08637974"
             inkscape:connector-curvature="0" />
          <path
             id="path5597"
             d="m 473.74082,423.36093 h 49.40038 v 5.31892 h -49.40038 z"
             style="opacity:1;fill:#cccccc;fill-opacity:1;stroke-width:0.10306117"
             inkscape:connector-curvature="0" />
          <path
             inkscape:connector-curvature="0"
             style="opacity:1;fill:#cccccc;fill-opacity:1;stroke-width:0.08637974"
             d="m 525.99905,423.36093 h 34.70276 v 5.31892 h -34.70276 z"
             id="path5599" />
          <path
             inkscape:connector-curvature="0"
             style="opacity:1;fill:#cccccc;fill-opacity:1;stroke-width:0.10306117"
             d="m 473.74082,434.66368 h 49.40038 v 5.31891 h -49.40038 z"
             id="path5603" />
          <path
             id="path5605"
             d="m 525.99905,434.66368 h 34.70276 v 5.31891 h -34.70276 z"
             style="opacity:1;fill:#cccccc;fill-opacity:1;stroke-width:0.08637974"
             inkscape:connector-curvature="0" />
          <text
             transform="scale(0.81685906,1.2242014)"
             id="text5671"
             y="291.52744"
             x="583.80133"
             style="font-style:normal;font-variant:normal;font-weight:bold;font-stretch:normal;font-size:22.07987404px;line-height:1.25;font-family:sans-serif;-inkscape-font-specification:'sans-serif Bold';letter-spacing:0px;word-spacing:0px;fill:#ffffff;fill-opacity:1;stroke:none;stroke-width:0.25874853"
             xml:space="preserve"><tspan
               style="font-style:normal;font-variant:normal;font-weight:bold;font-stretch:normal;font-size:22.07987404px;font-family:sans-serif;-inkscape-font-specification:'sans-serif Bold';fill:#ffffff;stroke-width:0.25874853"
               y="291.52744"
               x="583.80133"
               id="tspan5669"
               sodipodi:role="line">SPORTS</tspan></text>
        </g>
        <path
           style="opacity:0.60399996;fill:#000000;fill-opacity:1;stroke-width:0.08742989"
           d="m 444.51058,327.74284 -147.77731,94.51681 77.20971,32.56242 12.1223,-7.75339 133.34633,-85.2872 h 5.2e-4 l 2.30816,-1.47622 z"
           id="path5733"
           inkscape:connector-curvature="0" />
        <g
           id="g5561"
           transform="matrix(0.92166164,0.38799463,-1.0382683,0.66285962,205.59283,-68.073816)">
          <path
             style="opacity:1;fill:#f2f2f2;fill-opacity:1;stroke-width:0.41009557"
             d="m 522.62064,236.54384 h 103.1875 l 10e-6,162.9833 H 522.62064 Z"
             id="path5429"
             inkscape:connector-curvature="0" />
          <path
             inkscape:connector-curvature="0"
             id="path5431"
             d="m 522.62064,236.54377 h 103.1875 l 10e-6,24.27413 H 522.62064 Z"
             style="opacity:1;fill:#5aa02c;fill-opacity:1;stroke-width:0.15826517" />
          <path
             style="opacity:1;fill:#5aa02c;fill-opacity:1;stroke-width:0.1092134"
             d="m 522.62064,387.96802 h 103.1875 l 10e-6,11.55912 H 522.62064 Z"
             id="path5433"
             inkscape:connector-curvature="0" />
          <rect
             ry="7.0218816"
             y="241.65898"
             x="532.93939"
             height="14.043763"
             width="82.550018"
             id="rect5435"
             style="opacity:1;fill:#e3f4d7;fill-opacity:1;stroke-width:0.4564642" />
          <path
             inkscape:connector-curvature="0"
             id="path5437"
             d="m 529.43101,266.66972 h 89.56678 v 87.84914 h -89.56678 z"
             style="opacity:1;fill:#cccccc;fill-opacity:1;stroke-width:0.56397504" />
          <path
             inkscape:connector-curvature="0"
             style="opacity:1;fill:#cccccc;fill-opacity:1;stroke-width:0.10247595"
             d="m 530.2565,371.64079 h 49.94278 v 5.20157 H 530.2565 Z"
             id="path5439" />
          <path
             id="path5441"
             d="m 583.08851,371.64079 h 35.08377 v 5.20157 h -35.08377 z"
             style="opacity:1;fill:#cccccc;fill-opacity:1;stroke-width:0.08588924"
             inkscape:connector-curvature="0" />
          <g
             transform="matrix(1.56,0,0,2.1843965,162.70263,-119.84892)"
             id="g5447"
             style="fill:#cccccc">
            <path
               inkscape:connector-curvature="0"
               style="opacity:1;fill:#cccccc;fill-opacity:1;stroke-width:0.0555129"
               d="m 235.61146,228.73747 h 32.0146 v 2.38124 h -32.0146 z"
               id="path5443" />
            <path
               id="path5445"
               d="m 269.47813,228.73747 h 22.4896 v 2.38124 h -22.4896 z"
               style="opacity:1;fill:#cccccc;fill-opacity:1;stroke-width:0.04652761"
               inkscape:connector-curvature="0" />
          </g>
          <path
             style="opacity:1;fill:#656565;fill-opacity:1;stroke-width:0.20200175"
             d="m 529.43101,343.24875 h 89.56678 v 11.27011 h -89.56678 z"
             id="path5449"
             inkscape:connector-curvature="0" />
          <rect
             style="opacity:1;fill:#ffffff;fill-opacity:1;stroke-width:0.4884167"
             id="rect5451"
             width="72.64399"
             height="3.1787519"
             x="537.8924"
             y="347.29443" />
          <ellipse
             ry="3.1787519"
             rx="2.2701249"
             style="opacity:1;fill:#ffffff;fill-opacity:1;stroke-width:0.4884167"
             id="circle5453"
             cx="547.17926"
             cy="348.88379" />
          <ellipse
             ry="22.540243"
             rx="16.09725"
             style="opacity:1;fill:#656565;fill-opacity:1;stroke-width:0.90705955"
             id="circle5455"
             cx="574.21442"
             cy="305.10373" />
          <path
             sodipodi:type="star"
             style="opacity:1;fill:#cccccc;fill-opacity:1;stroke-width:0.26458332"
             id="path5457"
             sodipodi:sides="3"
             sodipodi:cx="308.50418"
             sodipodi:cy="135.73643"
             sodipodi:r1="4.3030396"
             sodipodi:r2="2.1515198"
             sodipodi:arg1="0.78539816"
             sodipodi:arg2="1.8325957"
             inkscape:flatsided="false"
             inkscape:rounded="0"
             inkscape:randomized="0"
             d="m 311.54689,138.77914 -3.59956,-0.9645 -3.59957,-0.9645 2.63507,-2.63506 2.63506,-2.63506 0.9645,3.59956 z"
             inkscape:transform-center-x="-1.6104122"
             transform="matrix(1.6513183,-2.3122654,1.6513183,2.3122654,-159.61036,704.58862)"
             inkscape:transform-center-y="-6.3984746e-06" />
          <rect
             style="opacity:1;fill:#000000;fill-opacity:0;stroke-width:0.4884167"
             id="rect5459"
             width="6.397625"
             height="17.121941"
             x="533.76489"
             y="354.51883" />
          <rect
             style="opacity:1;fill:#8dd35f;fill-opacity:1;stroke-width:0.31848472"
             id="rect5461"
             width="7.9939227"
             height="11.848076"
             x="529.43103"
             y="356.46945" />
          <path
             inkscape:connector-curvature="0"
             style="opacity:1;fill:#aade87;fill-opacity:1;stroke-width:0.08588924"
             d="m 539.95613,359.79271 h 35.08377 v 5.20157 h -35.08377 z"
             id="path5463" />
        </g>
      </g>
    </g>
  </g>
  <g
     inkscape:groupmode="layer"
     id="layer2"
     inkscape:label="newcase-begin"
     transform="translate(-45.824388,-22.912322)" />
</svg>
