<?xml version="1.0" encoding="UTF-8" standalone="no"?>
<!-- Created with Inkscape (http://www.inkscape.org/) -->

<svg
   xmlns:dc="http://purl.org/dc/elements/1.1/"
   xmlns:cc="http://creativecommons.org/ns#"
   xmlns:rdf="http://www.w3.org/1999/02/22-rdf-syntax-ns#"
   xmlns:svg="http://www.w3.org/2000/svg"
   xmlns="http://www.w3.org/2000/svg"
   xmlns:sodipodi="http://sodipodi.sourceforge.net/DTD/sodipodi-0.dtd"
   xmlns:inkscape="http://www.inkscape.org/namespaces/inkscape"
   width="5.7667809in"
   height="5.7626715in"
   viewBox="0 0 146.47623 146.37186"
   version="1.1"
   id="svg8"
   inkscape:version="0.92.2 (5c3e80d, 2017-08-06)"
   sodipodi:docname="flatphone.svg"
   inkscape:export-filename="/home/bobby/public_html/profile/images/logo.png"
   inkscape:export-xdpi="69.028908"
   inkscape:export-ydpi="69.028908">
  <defs
     id="defs2" />
  <sodipodi:namedview
     id="base"
     pagecolor="#ffffff"
     bordercolor="#666666"
     borderopacity="1.0"
     inkscape:pageopacity="0.0"
     inkscape:pageshadow="2"
     inkscape:zoom="1"
     inkscape:cx="114.15492"
     inkscape:cy="323.54742"
     inkscape:document-units="mm"
     inkscape:current-layer="layer1"
     showgrid="false"
     showborder="true"
     units="in"
     inkscape:object-paths="true"
     inkscape:object-nodes="false"
     inkscape:snap-nodes="true"
     inkscape:window-width="1652"
     inkscape:window-height="1024"
     inkscape:window-x="1542"
     inkscape:window-y="31"
     inkscape:window-maximized="0"
     fit-margin-top="0"
     fit-margin-left="0"
     fit-margin-right="0"
     fit-margin-bottom="0" />
  <metadata
     id="metadata5">
    <rdf:RDF>
      <cc:Work
         rdf:about="">
        <dc:format>image/svg+xml</dc:format>
        <dc:type
           rdf:resource="http://purl.org/dc/dcmitype/StillImage" />
        <dc:title></dc:title>
      </cc:Work>
    </rdf:RDF>
  </metadata>
  <g
     inkscape:label="orgin"
     inkscape:groupmode="layer"
     id="layer1"
     transform="translate(-45.824388,-116.71231)">
    <path
       inkscape:connector-curvature="0"
       style="opacity:1;fill:#b3b3b3;fill-opacity:1;stroke-width:0.26458332"
       d="m 138.4794,178.51729 c -2.20015,-0.0244 -3.97814,0.29596 -5.19658,0.99942 l -79.999767,46.18788 -7.436239,-4.55476 v 10.31875 c -0.498298,4.45087 7.394419,12.43256 20.299018,19.88302 15.867669,9.1612 33.126339,13.9475 38.696348,10.73165 l 85.725,-49.49362 c 0.46958,-0.27112 0.83833,-0.59143 1.11466,-0.95395 l 0.004,-0.001 0.002,-0.007 c 0.47624,-0.62919 0.66913,-1.3879 0.59635,-2.25412 l 0.001,-0.005 0.0119,-10.12134 -6.37119,0.9002 v 0.005 c -3.46006,-3.16818 -8.20374,-6.58787 -13.94702,-9.90375 -12.39661,-7.15718 -25.64206,-11.64393 -33.49976,-11.73107 z"
       id="path4514"
       inkscape:export-filename="/home/bobby/public_html/profile/images/logo.png"
       inkscape:export-xdpi="69.362785"
       inkscape:export-ydpi="69.362785" />
    <path
       style="opacity:1;fill:#e6e6e6;fill-opacity:1;stroke-width:0.26458332"
       d="m 171.97917,179.92977 c 15.86766,9.1612 24.15783,19.12539 18.58782,22.34124 l -85.725,49.49335 C 99.271982,254.98021 82.013498,250.19388 66.14583,241.03268 50.278175,231.87149 41.988007,221.90729 47.558017,218.69145 l 85.725003,-49.49336 c 5.57001,-3.21584 22.82849,1.57049 38.69615,10.73168 z"
       id="rect3700"
       inkscape:connector-curvature="0"
       inkscape:export-filename="/home/bobby/public_html/profile/images/logo.png"
       inkscape:export-xdpi="69.362785"
       inkscape:export-ydpi="69.362785" />
    <path
       style="opacity:1;fill:#333333;fill-opacity:1;stroke-width:0.21134923"
       d="m 127.30533,174.25807 54.49752,31.46417 -70.98316,40.98214 -54.497521,-31.46417 z"
       id="rect4507"
       inkscape:connector-curvature="0"
       inkscape:export-filename="/home/bobby/public_html/profile/images/logo.png"
       inkscape:export-xdpi="69.362785"
       inkscape:export-ydpi="69.362785" />
    <path
       style="opacity:1;fill:#b3b3b3;fill-opacity:1;stroke-width:0.26458332"
       d="m 77.978643,238.69892 a 3.3831434,5.9800168 83.051057 0 1 -8.393232,0.34792 3.3831434,5.9800168 83.051057 0 1 0.602606,-4.84584 3.3831434,5.9800168 83.051057 0 1 8.393224,-0.34791 3.3831434,5.9800168 83.051057 0 1 -0.602598,4.84583 z"
       id="path4509"
       inkscape:connector-curvature="0"
       inkscape:export-filename="/home/bobby/public_html/profile/images/logo.png"
       inkscape:export-xdpi="69.362785"
       inkscape:export-ydpi="69.362785" />
    <path
       inkscape:connector-curvature="0"
       style="color:#000000;font-style:normal;font-variant:normal;font-weight:normal;font-stretch:normal;font-size:medium;line-height:normal;font-family:sans-serif;font-variant-ligatures:normal;font-variant-position:normal;font-variant-caps:normal;font-variant-numeric:normal;font-variant-alternates:normal;font-feature-settings:normal;text-indent:0;text-align:start;text-decoration:none;text-decoration-line:none;text-decoration-style:solid;text-decoration-color:#000000;letter-spacing:normal;word-spacing:normal;text-transform:none;writing-mode:lr-tb;direction:ltr;text-orientation:mixed;dominant-baseline:auto;baseline-shift:baseline;text-anchor:start;white-space:normal;shape-padding:0;clip-rule:nonzero;display:inline;overflow:visible;visibility:visible;opacity:0.43500001;isolation:auto;mix-blend-mode:normal;color-interpolation:sRGB;color-interpolation-filters:linearRGB;solid-color:#000000;solid-opacity:1;vector-effect:none;fill:#000000;fill-opacity:1;fill-rule:nonzero;stroke:none;stroke-width:26.45833015;stroke-linecap:butt;stroke-linejoin:miter;stroke-miterlimit:4;stroke-dasharray:none;stroke-dashoffset:0;stroke-opacity:1;color-rendering:auto;image-rendering:auto;shape-rendering:auto;text-rendering:auto;enable-background:accumulate"
       d="m 138.74398,168.72771 c -2.20015,-0.0244 -3.97814,0.29596 -5.19658,0.99942 l -70.140418,40.49572 47.256028,27.28309 77.79008,-44.9125 c -3.50099,-3.75214 -9.08862,-8.02351 -16.20935,-12.13466 -12.39661,-7.15718 -25.64206,-11.64393 -33.49976,-11.73107 z"
       id="path4993"
       inkscape:export-filename="/home/bobby/public_html/profile/images/logo.png"
       inkscape:export-xdpi="69.362785"
       inkscape:export-ydpi="69.362785" />
    <g
       id="g4661"
       transform="matrix(0.8660254,0.5,-1,0.57735027,116.89934,-78.38576)"
       inkscape:export-filename="/home/bobby/public_html/profile/images/logo.png"
       inkscape:export-xdpi="69.362785"
       inkscape:export-ydpi="69.362785">
      <path
         style="opacity:1;fill:#f2f2f2;fill-opacity:1;stroke-width:0.22215548"
         d="m 230.18751,188.5208 h 66.14583 l 10e-6,74.61251 h -66.14584 z"
         id="path4525"
         inkscape:connector-curvature="0" />
      <path
         inkscape:connector-curvature="0"
         id="path4527"
         d="m 230.18751,188.52077 h 66.14583 l 10e-6,11.11251 h -66.14584 z"
         style="opacity:1;fill:#37abc8;fill-opacity:1;stroke-width:0.08573484" />
      <path
         style="opacity:1;fill:#37abc8;fill-opacity:1;stroke-width:0.05916269"
         d="m 230.18751,257.84163 h 66.14583 l 10e-6,5.29168 h -66.14584 z"
         id="path4529"
         inkscape:connector-curvature="0" />
      <path
         inkscape:connector-curvature="0"
         style="opacity:1;fill:#b1dfe9;fill-opacity:1;stroke-width:0.24727413"
         d="m 240.01666,190.86249 h 46.48755 c 1.78087,0 3.21456,1.43369 3.21456,3.21456 0,1.78087 -1.43369,3.21457 -3.21456,3.21457 h -46.48755 c -1.78087,0 -3.21457,-1.4337 -3.21457,-3.21457 0,-1.78087 1.4337,-3.21456 3.21457,-3.21456 z"
         id="rect4535" />
      <path
         inkscape:connector-curvature="0"
         id="rect4537"
         d="m 234.55313,202.3122 h 57.4146 v 22.48958 h -57.4146 z"
         style="opacity:1;fill:#0088aa;fill-opacity:1;stroke-width:0.2284649" />
      <g
         transform="translate(-0.26458333,-1.2567721)"
         style="fill:#cccccc"
         id="g4548">
        <path
           id="path4540"
           d="m 235.61146,228.73747 h 32.0146 v 2.38124 h -32.0146 z"
           style="opacity:1;fill:#cccccc;fill-opacity:1;stroke-width:0.0555129"
           inkscape:connector-curvature="0" />
        <path
           inkscape:connector-curvature="0"
           style="opacity:1;fill:#cccccc;fill-opacity:1;stroke-width:0.04652761"
           d="m 269.47813,228.73747 h 22.4896 v 2.38124 h -22.4896 z"
           id="path4544" />
      </g>
      <g
         transform="translate(-0.26458333,3.8033842)"
         id="g4554"
         style="fill:#cccccc">
        <path
           inkscape:connector-curvature="0"
           style="opacity:1;fill:#cccccc;fill-opacity:1;stroke-width:0.0555129"
           d="m 235.61146,228.73747 h 32.0146 v 2.38124 h -32.0146 z"
           id="path4550" />
        <path
           id="path4552"
           d="m 269.47813,228.73747 h 22.4896 v 2.38124 h -22.4896 z"
           style="opacity:1;fill:#cccccc;fill-opacity:1;stroke-width:0.04652761"
           inkscape:connector-curvature="0" />
      </g>
      <g
         style="fill:#cccccc"
         id="g4560"
         transform="translate(-0.26458333,8.8635404)">
        <path
           id="path4556"
           d="m 235.61146,228.73747 h 32.0146 v 2.38124 h -32.0146 z"
           style="opacity:1;fill:#cccccc;fill-opacity:1;stroke-width:0.0555129"
           inkscape:connector-curvature="0" />
        <path
           inkscape:connector-curvature="0"
           style="opacity:1;fill:#cccccc;fill-opacity:1;stroke-width:0.04652761"
           d="m 269.47813,228.73747 h 22.4896 v 2.38124 h -22.4896 z"
           id="path4558" />
      </g>
      <g
         transform="translate(-0.26458333,13.923697)"
         id="g4566"
         style="fill:#cccccc">
        <path
           inkscape:connector-curvature="0"
           style="opacity:1;fill:#cccccc;fill-opacity:1;stroke-width:0.0555129"
           d="m 235.61146,228.73747 h 32.0146 v 2.38124 h -32.0146 z"
           id="path4562" />
        <path
           id="path4564"
           d="m 269.47813,228.73747 h 22.4896 v 2.38124 h -22.4896 z"
           style="opacity:1;fill:#cccccc;fill-opacity:1;stroke-width:0.04652761"
           inkscape:connector-curvature="0" />
      </g>
      <g
         style="fill:#cccccc"
         id="g4572"
         transform="translate(-0.26458333,18.983853)">
        <path
           id="path4568"
           d="m 235.61146,228.73747 h 32.0146 v 2.38124 h -32.0146 z"
           style="opacity:1;fill:#cccccc;fill-opacity:1;stroke-width:0.0555129"
           inkscape:connector-curvature="0" />
        <path
           inkscape:connector-curvature="0"
           style="opacity:1;fill:#cccccc;fill-opacity:1;stroke-width:0.04652761"
           d="m 269.47813,228.73747 h 22.4896 v 2.38124 h -22.4896 z"
           id="path4570" />
      </g>
      <g
         transform="translate(-0.26458333,24.044009)"
         id="g4578"
         style="fill:#cccccc">
        <path
           inkscape:connector-curvature="0"
           style="opacity:1;fill:#cccccc;fill-opacity:1;stroke-width:0.0555129"
           d="m 235.61146,228.73747 h 32.0146 v 2.38124 h -32.0146 z"
           id="path4574" />
        <path
           id="path4576"
           d="m 269.47813,228.73747 h 22.4896 v 2.38124 h -22.4896 z"
           style="opacity:1;fill:#cccccc;fill-opacity:1;stroke-width:0.04652761"
           inkscape:connector-curvature="0" />
      </g>
      <g
         aria-label="NEWS"
         style="font-style:normal;font-variant:normal;font-weight:900;font-stretch:normal;font-size:10.58333302px;line-height:1.25;font-family:Montserrat;-inkscape-font-specification:'Montserrat Heavy';letter-spacing:0px;word-spacing:0px;fill:#ffffff;fill-opacity:1;stroke:none;stroke-width:0.26458332"
         id="text4582">
        <path
           inkscape:connector-curvature="0"
           d="m 250.95623,209.85282 v 3.3655 l -2.81516,-3.3655 h -2.05317 v 7.40833 h 2.43417 v -3.3655 l 2.81516,3.3655 h 2.05317 v -7.40833 z"
           style="font-style:normal;font-variant:normal;font-weight:900;font-stretch:normal;font-family:Montserrat;-inkscape-font-specification:'Montserrat Heavy';fill:#ffffff;stroke-width:0.26458332"
           id="path4773" />
        <path
           inkscape:connector-curvature="0"
           d="m 257.05951,215.37732 v -0.97367 h 3.13266 v -1.79916 h -3.13266 v -0.86784 h 3.56658 v -1.88383 h -6.02191 v 7.40833 h 6.15949 v -1.88383 z"
           style="font-style:normal;font-variant:normal;font-weight:900;font-stretch:normal;font-family:Montserrat;-inkscape-font-specification:'Montserrat Heavy';fill:#ffffff;stroke-width:0.26458332"
           id="path4775" />
        <path
           inkscape:connector-curvature="0"
           d="m 271.31592,209.85282 -1.36525,4.26508 -1.29117,-4.26508 h -2.29658 l -1.36525,4.21217 -1.29117,-4.21217 h -2.57175 l 2.37067,7.40833 h 2.67758 l 1.25942,-3.95816 1.19592,3.95816 h 2.67758 l 2.37067,-7.40833 z"
           style="font-style:normal;font-variant:normal;font-weight:900;font-stretch:normal;font-family:Montserrat;-inkscape-font-specification:'Montserrat Heavy';fill:#ffffff;stroke-width:0.26458332"
           id="path4777" />
        <path
           inkscape:connector-curvature="0"
           d="m 276.9828,217.43049 c 2.29658,0 3.45016,-1.143 3.45016,-2.49767 0,-2.7305 -4.09575,-1.98967 -4.09575,-2.87867 0,-0.254 0.23284,-0.46566 0.96309,-0.46566 0.64558,0 1.3335,0.17991 2.06375,0.55033 l 0.75141,-1.80975 c -0.77258,-0.43392 -1.79916,-0.64558 -2.794,-0.64558 -2.29658,0 -3.45016,1.12183 -3.45016,2.49766 0,2.76225 4.09575,2.01084 4.09575,2.94217 0,0.254 -0.254,0.40217 -0.96309,0.40217 -0.81491,0 -1.74625,-0.26459 -2.44475,-0.67734 l -0.80433,1.82034 c 0.74083,0.45508 1.98967,0.762 3.22792,0.762 z"
           style="font-style:normal;font-variant:normal;font-weight:900;font-stretch:normal;font-family:Montserrat;-inkscape-font-specification:'Montserrat Heavy';fill:#ffffff;stroke-width:0.26458332"
           id="path4779" />
      </g>
    </g>
    <path
       inkscape:connector-curvature="0"
       style="color:#000000;font-style:normal;font-variant:normal;font-weight:normal;font-stretch:normal;font-size:medium;line-height:normal;font-family:sans-serif;font-variant-ligatures:normal;font-variant-position:normal;font-variant-caps:normal;font-variant-numeric:normal;font-variant-alternates:normal;font-feature-settings:normal;text-indent:0;text-align:start;text-decoration:none;text-decoration-line:none;text-decoration-style:solid;text-decoration-color:#000000;letter-spacing:normal;word-spacing:normal;text-transform:none;writing-mode:lr-tb;direction:ltr;text-orientation:mixed;dominant-baseline:auto;baseline-shift:baseline;text-anchor:start;white-space:normal;shape-padding:0;clip-rule:nonzero;display:inline;overflow:visible;visibility:visible;opacity:0.553;isolation:auto;mix-blend-mode:normal;color-interpolation:sRGB;color-interpolation-filters:linearRGB;solid-color:#000000;solid-opacity:1;vector-effect:none;fill:#000000;fill-opacity:1;fill-rule:nonzero;stroke:none;stroke-width:26.45833015;stroke-linecap:butt;stroke-linejoin:miter;stroke-miterlimit:4;stroke-dasharray:none;stroke-dashoffset:0;stroke-opacity:1;color-rendering:auto;image-rendering:auto;shape-rendering:auto;text-rendering:auto;enable-background:accumulate"
       d="m 127.72657,145.55031 -11.1125,6.41615 -51.984424,30.01315 45.307824,26.15861 63.09744,-36.4293 z"
       id="path4769"
       inkscape:export-filename="/home/bobby/public_html/profile/images/logo.png"
       inkscape:export-xdpi="69.362785"
       inkscape:export-ydpi="69.362785" />
    <g
       id="g4704"
       transform="matrix(0.8660254,0.5,-1,0.57735027,-6.2455406,-82.429697)"
       inkscape:export-filename="/home/bobby/public_html/profile/images/logo.png"
       inkscape:export-xdpi="69.362785"
       inkscape:export-ydpi="69.362785">
      <path
         inkscape:connector-curvature="0"
         id="path4586"
         d="m 276.22501,105.70622 h 66.14583 l 1e-5,74.61251 h -66.14584 z"
         style="opacity:1;fill:#f2f2f2;fill-opacity:1;stroke-width:0.22215548" />
      <path
         style="opacity:1;fill:#ff0000;fill-opacity:1;stroke-width:0.08573484"
         d="m 276.22501,105.70619 h 66.14583 l 1e-5,11.11251 h -66.14584 z"
         id="path4588"
         inkscape:connector-curvature="0" />
      <path
         inkscape:connector-curvature="0"
         id="path4590"
         d="m 276.22501,175.02705 h 66.14583 l 1e-5,5.29168 h -66.14584 z"
         style="opacity:1;fill:#ff0000;fill-opacity:1;stroke-width:0.05916269" />
      <rect
         style="opacity:1;fill:#ffd5d5;fill-opacity:1;stroke-width:0.24727413"
         id="rect4592"
         width="52.916679"
         height="6.4291272"
         x="282.8396"
         y="108.0479"
         ry="3.2145636" />
      <path
         style="opacity:1;fill:#cccccc;fill-opacity:1;stroke-width:0.30551451"
         d="m 280.59063,119.49762 h 57.4146 v 40.21666 h -57.4146 z"
         id="path4594"
         inkscape:connector-curvature="0" />
      <path
         id="path4620"
         d="m 281.11979,167.55257 h 32.0146 v 2.38124 h -32.0146 z"
         style="opacity:1;fill:#cccccc;fill-opacity:1;stroke-width:0.0555129"
         inkscape:connector-curvature="0" />
      <path
         inkscape:connector-curvature="0"
         style="opacity:1;fill:#cccccc;fill-opacity:1;stroke-width:0.04652761"
         d="m 314.98646,167.55257 h 22.4896 v 2.38124 h -22.4896 z"
         id="path4622" />
      <g
         style="fill:#cccccc"
         id="g4630"
         transform="translate(45.508335,-57.447657)">
        <path
           id="path4626"
           d="m 235.61146,228.73747 h 32.0146 v 2.38124 h -32.0146 z"
           style="opacity:1;fill:#cccccc;fill-opacity:1;stroke-width:0.0555129"
           inkscape:connector-curvature="0" />
        <path
           inkscape:connector-curvature="0"
           style="opacity:1;fill:#cccccc;fill-opacity:1;stroke-width:0.04652761"
           d="m 269.47813,228.73747 h 22.4896 v 2.38124 h -22.4896 z"
           id="path4628" />
      </g>
      <path
         inkscape:connector-curvature="0"
         id="path4663"
         d="m 280.59063,154.55491 h 57.4146 v 5.15937 h -57.4146 z"
         style="opacity:1;fill:#656565;fill-opacity:1;stroke-width:0.10942765" />
      <rect
         y="156.407"
         x="286.01459"
         height="1.4552083"
         width="46.566662"
         id="rect4665"
         style="opacity:1;fill:#ffffff;fill-opacity:1;stroke-width:0.26458332" />
      <circle
         r="1.4552083"
         cy="157.1346"
         cx="291.96771"
         id="path4670"
         style="opacity:1;fill:#ffffff;fill-opacity:1;stroke-width:0.26458332" />
      <circle
         r="10.31875"
         cy="137.09242"
         cx="309.29794"
         id="path4672"
         style="opacity:1;fill:#656565;fill-opacity:1;stroke-width:0.49136901" />
      <path
         inkscape:transform-center-y="-6.3984746e-06"
         transform="matrix(1.0585374,-1.0585374,1.0585374,1.0585374,-161.10256,319.97354)"
         inkscape:transform-center-x="-1.6104122"
         d="m 311.54689,138.77914 -3.59956,-0.9645 -3.59957,-0.9645 2.63507,-2.63506 2.63506,-2.63506 0.9645,3.59956 z"
         inkscape:randomized="0"
         inkscape:rounded="0"
         inkscape:flatsided="false"
         sodipodi:arg2="1.8325957"
         sodipodi:arg1="0.78539816"
         sodipodi:r2="2.1515198"
         sodipodi:r1="4.3030396"
         sodipodi:cy="135.73643"
         sodipodi:cx="308.50418"
         sodipodi:sides="3"
         id="path4674"
         style="opacity:1;fill:#cccccc;fill-opacity:1;stroke-width:0.26458332"
         sodipodi:type="star" />
      <rect
         y="159.71428"
         x="283.36874"
         height="7.8382936"
         width="4.1010418"
         id="rect4676"
         style="opacity:1;fill:#000000;fill-opacity:0;stroke-width:0.26458332" />
      <rect
         y="160.60725"
         x="280.59064"
         height="5.4239583"
         width="5.1243095"
         id="rect4680"
         style="opacity:1;fill:#ffaaaa;fill-opacity:1;stroke-width:0.17252839" />
      <path
         id="path4684"
         d="m 287.3375,162.12861 h 22.4896 v 2.38124 h -22.4896 z"
         style="opacity:1;fill:#ffaaaa;fill-opacity:1;stroke-width:0.04652761"
         inkscape:connector-curvature="0" />
    </g>
  </g>
  <g
     inkscape:groupmode="layer"
     id="layer2"
     inkscape:label="newcase-begin"
     transform="translate(-45.824388,-22.912317)" />
</svg>
