<?xml version="1.0" encoding="UTF-8" standalone="no"?>
<!-- Created with Inkscape (http://www.inkscape.org/) -->

<svg
   xmlns:dc="http://purl.org/dc/elements/1.1/"
   xmlns:cc="http://creativecommons.org/ns#"
   xmlns:rdf="http://www.w3.org/1999/02/22-rdf-syntax-ns#"
   xmlns:svg="http://www.w3.org/2000/svg"
   xmlns="http://www.w3.org/2000/svg"
   xmlns:sodipodi="http://sodipodi.sourceforge.net/DTD/sodipodi-0.dtd"
   xmlns:inkscape="http://www.inkscape.org/namespaces/inkscape"
   width="2778.3323mm"
   height="304.39362mm"
   viewBox="0 0 2778.3323 304.39362"
   version="1.1"
   id="svg6102"
   sodipodi:docname="languages.svg"
   inkscape:version="0.92.2 (5c3e80d, 2017-08-06)">
  <defs
     id="defs6096" />
  <sodipodi:namedview
     id="base"
     pagecolor="#c9c9c9"
     bordercolor="#666666"
     borderopacity="1.0"
     inkscape:pageopacity="0"
     inkscape:pageshadow="2"
     inkscape:zoom="0.125"
     inkscape:cx="6865.6377"
     inkscape:cy="984.1649"
     inkscape:document-units="mm"
     inkscape:current-layer="layer1"
     showgrid="false"
     showborder="true"
     inkscape:window-width="1280"
     inkscape:window-height="995"
     inkscape:window-x="0"
     inkscape:window-y="0"
     inkscape:window-maximized="1"
     showguides="true"
     inkscape:guide-bbox="true"
     inkscape:object-nodes="false"
     inkscape:object-paths="false"
     fit-margin-top="0"
     fit-margin-left="0"
     fit-margin-right="0"
     fit-margin-bottom="0" />
  <metadata
     id="metadata6099">
    <rdf:RDF>
      <cc:Work
         rdf:about="">
        <dc:format>image/svg+xml</dc:format>
        <dc:type
           rdf:resource="http://purl.org/dc/dcmitype/StillImage" />
        <dc:title></dc:title>
      </cc:Work>
    </rdf:RDF>
  </metadata>
  <g
     inkscape:label="Layer 1"
     inkscape:groupmode="layer"
     id="layer1"
     transform="translate(1323.6183,-466.19305)">
    <g
       id="g7327"
       transform="translate(169.60312,-320.17428)"
       style="fill:#3cadc9;fill-opacity:1">
      <path
         sodipodi:type="star"
         style="opacity:1;fill:#3cadc9;fill-opacity:1;stroke:#ffffff;stroke-width:1.32291663;stroke-miterlimit:4;stroke-dasharray:none;stroke-opacity:1"
         id="path7323"
         sodipodi:sides="6"
         sodipodi:cx="-357.75638"
         sodipodi:cy="509.50009"
         sodipodi:r1="59.146362"
         sodipodi:r2="29.573179"
         sodipodi:arg1="0.62336962"
         sodipodi:arg2="1.1469684"
         inkscape:flatsided="true"
         inkscape:rounded="0"
         inkscape:randomized="0"
         d="m -309.7345,544.02822 -53.91318,24.3241 -48.02187,-34.52813 5.8913,-58.85223 53.91317,-24.3241 48.02188,34.52813 z"
         inkscape:transform-center-x="-1.8473595e-05"
         inkscape:transform-center-y="-2.3452109e-05"
         transform="matrix(0.7721029,0.35582833,-0.35582833,0.7721029,99.762939,243.41343)" />
      <path
         transform="matrix(0.75869978,0.34965142,-0.34965142,0.75869978,91.820739,248.03251)"
         inkscape:transform-center-y="-5.3692964e-06"
         inkscape:transform-center-x="-6.3515377e-06"
         d="m -309.7345,544.02822 -53.91318,24.3241 -48.02187,-34.52813 5.8913,-58.85223 53.91317,-24.3241 48.02188,34.52813 z"
         inkscape:randomized="0"
         inkscape:rounded="0"
         inkscape:flatsided="true"
         sodipodi:arg2="1.1469684"
         sodipodi:arg1="0.62336962"
         sodipodi:r2="29.573179"
         sodipodi:r1="59.146362"
         sodipodi:cy="509.50009"
         sodipodi:cx="-357.75638"
         sodipodi:sides="6"
         id="path7317"
         style="opacity:1;fill:#3cadc9;fill-opacity:1;stroke:#ffffff;stroke-width:1.32291663;stroke-miterlimit:4;stroke-dasharray:none;stroke-opacity:1"
         sodipodi:type="star" />
    </g>
    <path
       style="opacity:1;fill:#ffffff;fill-opacity:0.59537569;stroke:none;stroke-width:1.03589928;stroke-miterlimit:4;stroke-dasharray:none;stroke-opacity:1"
       d="m -211.09681,148.22499 -23.89255,40.62743 21.83152,38.52278 c 12.50691,-7.669 33.18608,-23.34575 25.01825,-39.82139 -6.34128,-12.7913 -0.71469,-24.15628 24.56632,-38.25785 l -0.39282,-0.69314 z"
       id="path7355"
       inkscape:connector-curvature="0" />
    <text
       xml:space="preserve"
       style="font-style:normal;font-variant:normal;font-weight:bold;font-stretch:normal;font-size:24.55748558px;line-height:1;font-family:sans-serif;-inkscape-font-specification:'sans-serif Bold';letter-spacing:0px;word-spacing:0px;fill:#000000;fill-opacity:1;stroke:#ffffff;stroke-width:0.76008922"
       x="-100.25063"
       y="242.81577"
       id="text7305"
       transform="matrix(1.2352491,0,-0.42769487,0.80955332,0,0)"><tspan
         sodipodi:role="line"
         id="tspan7303"
         x="-100.25063"
         y="242.81577"
         style="font-style:normal;font-variant:normal;font-weight:bold;font-stretch:normal;font-size:24.55748558px;line-height:1;font-family:sans-serif;-inkscape-font-specification:'sans-serif Bold';stroke:#ffffff;stroke-width:0.76008922">PHP</tspan><tspan
         sodipodi:role="line"
         x="-100.25063"
         y="267.37326"
         style="font-style:normal;font-variant:normal;font-weight:bold;font-stretch:normal;font-size:24.55748558px;line-height:1;font-family:sans-serif;-inkscape-font-specification:'sans-serif Bold';stroke:#ffffff;stroke-width:0.76008922"
         id="tspan7307" /></text>
    <g
       transform="translate(-421.09159,-326.08324)"
       id="g7333"
       style="fill:#ff7f2a;fill-opacity:1">
      <path
         transform="matrix(0.7721029,0.35582833,-0.35582833,0.7721029,99.762939,243.41343)"
         inkscape:transform-center-y="-2.3452109e-05"
         inkscape:transform-center-x="-1.8473595e-05"
         d="m -309.7345,544.02822 -53.91318,24.3241 -48.02187,-34.52813 5.8913,-58.85223 53.91317,-24.3241 48.02188,34.52813 z"
         inkscape:randomized="0"
         inkscape:rounded="0"
         inkscape:flatsided="true"
         sodipodi:arg2="1.1469684"
         sodipodi:arg1="0.62336962"
         sodipodi:r2="29.573179"
         sodipodi:r1="59.146362"
         sodipodi:cy="509.50009"
         sodipodi:cx="-357.75638"
         sodipodi:sides="6"
         id="path7329"
         style="opacity:1;fill:#ff7f2a;fill-opacity:1;stroke:#ffffff;stroke-width:1.32291663;stroke-miterlimit:4;stroke-dasharray:none;stroke-opacity:1"
         sodipodi:type="star" />
      <path
         sodipodi:type="star"
         style="opacity:1;fill:#ff7f2a;fill-opacity:1;stroke:#ffffff;stroke-width:1.32291663;stroke-miterlimit:4;stroke-dasharray:none;stroke-opacity:1"
         id="path7331"
         sodipodi:sides="6"
         sodipodi:cx="-357.75638"
         sodipodi:cy="509.50009"
         sodipodi:r1="59.146362"
         sodipodi:r2="29.573179"
         sodipodi:arg1="0.62336962"
         sodipodi:arg2="1.1469684"
         inkscape:flatsided="true"
         inkscape:rounded="0"
         inkscape:randomized="0"
         d="m -309.7345,544.02822 -53.91318,24.3241 -48.02187,-34.52813 5.8913,-58.85223 53.91317,-24.3241 48.02188,34.52813 z"
         inkscape:transform-center-x="-6.3515377e-06"
         inkscape:transform-center-y="-5.3692964e-06"
         transform="matrix(0.75869978,0.34965142,-0.34965142,0.75869978,91.820739,248.03251)" />
    </g>
    <path
       style="opacity:1;fill:#ffffff;fill-opacity:0.59537569;stroke:none;stroke-width:1.03589928;stroke-miterlimit:4;stroke-dasharray:none;stroke-opacity:1"
       d="m -801.79152,142.31604 -23.89255,40.62743 21.83152,38.52278 c 12.50691,-7.669 33.18608,-23.34575 25.01825,-39.82139 -6.34128,-12.7913 -0.71469,-24.15628 24.56632,-38.25785 l -0.39282,-0.69314 z"
       id="path7382"
       inkscape:connector-curvature="0" />
    <text
       transform="matrix(1.0121362,0,-0.35044386,0.98800933,0,0)"
       id="text7339"
       y="194.45627"
       x="-744.12787"
       style="font-style:normal;font-variant:normal;font-weight:bold;font-stretch:normal;font-size:24.17947769px;line-height:1;font-family:sans-serif;-inkscape-font-specification:'sans-serif Bold';letter-spacing:0px;word-spacing:0px;fill:#000000;fill-opacity:1;stroke:#ffffff;stroke-width:0.7483893"
       xml:space="preserve"><tspan
         style="font-style:normal;font-variant:normal;font-weight:bold;font-stretch:normal;font-size:24.17947769px;line-height:1;font-family:sans-serif;-inkscape-font-specification:'sans-serif Bold';stroke:#ffffff;stroke-width:0.7483893"
         y="194.45627"
         x="-744.12787"
         id="tspan7335"
         sodipodi:role="line">HTML</tspan><tspan
         id="tspan7337"
         style="font-style:normal;font-variant:normal;font-weight:bold;font-stretch:normal;font-size:24.17947769px;line-height:1;font-family:sans-serif;-inkscape-font-specification:'sans-serif Bold';stroke:#ffffff;stroke-width:0.7483893"
         y="218.63574"
         x="-744.12787"
         sodipodi:role="line" /></text>
    <g
       style="fill:#ffcc00;fill-opacity:1"
       id="g7345"
       transform="translate(-197.10647,-322.38175)">
      <path
         sodipodi:type="star"
         style="opacity:1;fill:#ffcc00;fill-opacity:1;stroke:#ffffff;stroke-width:1.32291663;stroke-miterlimit:4;stroke-dasharray:none;stroke-opacity:1"
         id="path7341"
         sodipodi:sides="6"
         sodipodi:cx="-357.75638"
         sodipodi:cy="509.50009"
         sodipodi:r1="59.146362"
         sodipodi:r2="29.573179"
         sodipodi:arg1="0.62336962"
         sodipodi:arg2="1.1469684"
         inkscape:flatsided="true"
         inkscape:rounded="0"
         inkscape:randomized="0"
         d="m -309.7345,544.02822 -53.91318,24.3241 -48.02187,-34.52813 5.8913,-58.85223 53.91317,-24.3241 48.02188,34.52813 z"
         inkscape:transform-center-x="-1.8473595e-05"
         inkscape:transform-center-y="-2.3452109e-05"
         transform="matrix(0.7721029,0.35582833,-0.35582833,0.7721029,99.762939,243.41343)" />
      <path
         transform="matrix(0.75869978,0.34965142,-0.34965142,0.75869978,91.820739,248.03251)"
         inkscape:transform-center-y="-5.3692964e-06"
         inkscape:transform-center-x="-6.3515377e-06"
         d="m -309.7345,544.02822 -53.91318,24.3241 -48.02187,-34.52813 5.8913,-58.85223 53.91317,-24.3241 48.02188,34.52813 z"
         inkscape:randomized="0"
         inkscape:rounded="0"
         inkscape:flatsided="true"
         sodipodi:arg2="1.1469684"
         sodipodi:arg1="0.62336962"
         sodipodi:r2="29.573179"
         sodipodi:r1="59.146362"
         sodipodi:cy="509.50009"
         sodipodi:cx="-357.75638"
         sodipodi:sides="6"
         id="path7343"
         style="opacity:1;fill:#ffcc00;fill-opacity:1;stroke:#ffffff;stroke-width:1.32291663;stroke-miterlimit:4;stroke-dasharray:none;stroke-opacity:1"
         sodipodi:type="star" />
    </g>
    <path
       inkscape:connector-curvature="0"
       id="path7380"
       d="m -577.80639,146.01752 -23.89255,40.62743 21.83152,38.52278 c 12.50691,-7.669 33.18608,-23.34575 25.01825,-39.82139 -6.34128,-12.7913 -0.71469,-24.15628 24.56632,-38.25785 l -0.39282,-0.69314 z"
       style="opacity:1;fill:#ffffff;fill-opacity:0.59537569;stroke:none;stroke-width:1.03589928;stroke-miterlimit:4;stroke-dasharray:none;stroke-opacity:1" />
    <text
       xml:space="preserve"
       style="font-style:normal;font-variant:normal;font-weight:bold;font-stretch:normal;font-size:25.58830833px;line-height:1;font-family:sans-serif;-inkscape-font-specification:'sans-serif Bold';letter-spacing:0px;word-spacing:0px;fill:#000000;fill-opacity:1;stroke:#ffffff;stroke-width:0.79199463"
       x="-509.84149"
       y="198.70375"
       id="text7351"
       transform="matrix(1.0121362,0,-0.35044386,0.98800933,0,0)"><tspan
         sodipodi:role="line"
         id="tspan7347"
         x="-509.84149"
         y="198.70375"
         style="font-style:normal;font-variant:normal;font-weight:bold;font-stretch:normal;font-size:25.58830833px;line-height:1;font-family:sans-serif;-inkscape-font-specification:'sans-serif Bold';stroke:#ffffff;stroke-width:0.79199463">CSS</tspan><tspan
         sodipodi:role="line"
         x="-509.84149"
         y="224.29205"
         style="font-style:normal;font-variant:normal;font-weight:bold;font-stretch:normal;font-size:25.58830833px;line-height:1;font-family:sans-serif;-inkscape-font-specification:'sans-serif Bold';stroke:#ffffff;stroke-width:0.79199463"
         id="tspan7349" /></text>
    <g
       transform="translate(-0.59128,-321.59311)"
       id="g7403"
       style="fill:#8800aa;fill-opacity:1">
      <path
         transform="matrix(0.7721029,0.35582833,-0.35582833,0.7721029,99.762939,243.41343)"
         inkscape:transform-center-y="-2.3452109e-05"
         inkscape:transform-center-x="-1.8473595e-05"
         d="m -309.7345,544.02822 -53.91318,24.3241 -48.02187,-34.52813 5.8913,-58.85223 53.91317,-24.3241 48.02188,34.52813 z"
         inkscape:randomized="0"
         inkscape:rounded="0"
         inkscape:flatsided="true"
         sodipodi:arg2="1.1469684"
         sodipodi:arg1="0.62336962"
         sodipodi:r2="29.573179"
         sodipodi:r1="59.146362"
         sodipodi:cy="509.50009"
         sodipodi:cx="-357.75638"
         sodipodi:sides="6"
         id="path7399"
         style="opacity:1;fill:#8800aa;fill-opacity:1;stroke:#ffffff;stroke-width:1.32291663;stroke-miterlimit:4;stroke-dasharray:none;stroke-opacity:1"
         sodipodi:type="star" />
      <path
         sodipodi:type="star"
         style="opacity:1;fill:#8800aa;fill-opacity:1;stroke:#ffffff;stroke-width:1.32291663;stroke-miterlimit:4;stroke-dasharray:none;stroke-opacity:1"
         id="path7401"
         sodipodi:sides="6"
         sodipodi:cx="-357.75638"
         sodipodi:cy="509.50009"
         sodipodi:r1="59.146362"
         sodipodi:r2="29.573179"
         sodipodi:arg1="0.62336962"
         sodipodi:arg2="1.1469684"
         inkscape:flatsided="true"
         inkscape:rounded="0"
         inkscape:randomized="0"
         d="m -309.7345,544.02822 -53.91318,24.3241 -48.02187,-34.52813 5.8913,-58.85223 53.91317,-24.3241 48.02188,34.52813 z"
         inkscape:transform-center-x="-6.3515377e-06"
         inkscape:transform-center-y="-5.3692964e-06"
         transform="matrix(0.75869978,0.34965142,-0.34965142,0.75869978,91.820739,248.03251)" />
    </g>
    <path
       style="opacity:1;fill:#ffffff;fill-opacity:0.59537569;stroke:none;stroke-width:1.03589928;stroke-miterlimit:4;stroke-dasharray:none;stroke-opacity:1"
       d="m -381.29121,146.80616 -23.89255,40.62743 21.83152,38.52278 c 12.50691,-7.669 33.18608,-23.34575 25.01825,-39.82139 -6.34128,-12.7913 -0.71469,-24.15628 24.56632,-38.25785 l -0.39282,-0.69314 z"
       id="path7405"
       inkscape:connector-curvature="0" />
    <text
       transform="matrix(1.0912032,0,-0.37782014,0.9164196,0,0)"
       id="text7411"
       y="212.40498"
       x="-270.49121"
       style="font-style:normal;font-variant:normal;font-weight:bold;font-stretch:normal;font-size:27.16018867px;line-height:1;font-family:sans-serif;-inkscape-font-specification:'sans-serif Bold';letter-spacing:0px;word-spacing:0px;fill:#000000;fill-opacity:1;stroke:#ffffff;stroke-width:0.84064656"
       xml:space="preserve"><tspan
         style="font-style:normal;font-variant:normal;font-weight:bold;font-stretch:normal;font-size:27.16018867px;line-height:1;font-family:sans-serif;-inkscape-font-specification:'sans-serif Bold';stroke:#ffffff;stroke-width:0.84064656"
         y="212.40498"
         x="-270.49121"
         id="tspan7407"
         sodipodi:role="line">JS</tspan><tspan
         id="tspan7409"
         style="font-style:normal;font-variant:normal;font-weight:bold;font-stretch:normal;font-size:27.16018867px;line-height:1;font-family:sans-serif;-inkscape-font-specification:'sans-serif Bold';stroke:#ffffff;stroke-width:0.84064656"
         y="239.56517"
         x="-270.49121"
         sodipodi:role="line" /></text>
    <path
       transform="matrix(0.7721029,0.35582833,-0.35582833,0.7721029,472.97581,-73.147476)"
       inkscape:transform-center-y="-2.3452109e-05"
       inkscape:transform-center-x="-1.8473595e-05"
       d="m -309.7345,544.02822 -53.91318,24.3241 -48.02187,-34.52813 5.8913,-58.85223 53.91317,-24.3241 48.02188,34.52813 z"
       inkscape:randomized="0"
       inkscape:rounded="0"
       inkscape:flatsided="true"
       sodipodi:arg2="1.1469684"
       sodipodi:arg1="0.62336962"
       sodipodi:r2="29.573179"
       sodipodi:r1="59.146362"
       sodipodi:cy="509.50009"
       sodipodi:cx="-357.75638"
       sodipodi:sides="6"
       id="path7428"
       style="opacity:1;fill:#338000;fill-opacity:1;stroke:#ffffff;stroke-width:1.32291663;stroke-miterlimit:4;stroke-dasharray:none;stroke-opacity:1"
       sodipodi:type="star" />
    <path
       sodipodi:type="star"
       style="opacity:1;fill:#338000;fill-opacity:1;stroke:#ffffff;stroke-width:1.32291663;stroke-miterlimit:4;stroke-dasharray:none;stroke-opacity:1"
       id="path7430"
       sodipodi:sides="6"
       sodipodi:cx="-357.75638"
       sodipodi:cy="509.50009"
       sodipodi:r1="59.146362"
       sodipodi:r2="29.573179"
       sodipodi:arg1="0.62336962"
       sodipodi:arg2="1.1469684"
       inkscape:flatsided="true"
       inkscape:rounded="0"
       inkscape:randomized="0"
       d="m -309.7345,544.02822 -53.91318,24.3241 -48.02187,-34.52813 5.8913,-58.85223 53.91317,-24.3241 48.02188,34.52813 z"
       inkscape:transform-center-x="-6.3515377e-06"
       inkscape:transform-center-y="-5.3692964e-06"
       transform="matrix(0.75869978,0.34965142,-0.34965142,0.75869978,465.03361,-68.528396)" />
    <path
       inkscape:connector-curvature="0"
       id="path7434"
       d="m -7.4870568,151.83836 -23.8925502,40.62743 21.8315202,38.52278 c 12.50691,-7.669 33.1860808,-23.34575 25.0182508,-39.82139 -6.3412805,-12.7913 -0.71469,-24.15628 24.566319,-38.25785 l -0.39282,-0.69314 z"
       style="opacity:1;fill:#ffffff;fill-opacity:0.59537569;stroke:none;stroke-width:1.03589928;stroke-miterlimit:4;stroke-dasharray:none;stroke-opacity:1" />
    <text
       xml:space="preserve"
       style="font-style:normal;font-variant:normal;font-weight:bold;font-stretch:normal;font-size:19.57995796px;line-height:1;font-family:sans-serif;-inkscape-font-specification:'sans-serif Bold';letter-spacing:0px;word-spacing:0px;fill:#000000;fill-opacity:1;stroke:#ffffff;stroke-width:0.6060276"
       x="43.347122"
       y="201.11739"
       id="text7446"
       transform="matrix(1.0121362,0,-0.35044386,0.98800933,0,0)"><tspan
         sodipodi:role="line"
         id="tspan7442"
         x="43.347122"
         y="201.11739"
         style="font-style:normal;font-variant:normal;font-weight:bold;font-stretch:normal;font-size:19.57995796px;line-height:1;font-family:sans-serif;-inkscape-font-specification:'sans-serif Bold';stroke:#ffffff;stroke-width:0.6060276">MYSQL</tspan><tspan
         sodipodi:role="line"
         x="43.347122"
         y="220.69734"
         style="font-style:normal;font-variant:normal;font-weight:bold;font-stretch:normal;font-size:19.57995796px;line-height:1;font-family:sans-serif;-inkscape-font-specification:'sans-serif Bold';stroke:#ffffff;stroke-width:0.6060276"
         id="tspan7444" /></text>
    <g
       transform="translate(-585.78883,-319.91482)"
       id="g7452"
       style="fill:#ff5555;fill-opacity:1">
      <path
         transform="matrix(0.7721029,0.35582833,-0.35582833,0.7721029,99.762939,243.41343)"
         inkscape:transform-center-y="-2.3452109e-05"
         inkscape:transform-center-x="-1.8473595e-05"
         d="m -309.7345,544.02822 -53.91318,24.3241 -48.02187,-34.52813 5.8913,-58.85223 53.91317,-24.3241 48.02188,34.52813 z"
         inkscape:randomized="0"
         inkscape:rounded="0"
         inkscape:flatsided="true"
         sodipodi:arg2="1.1469684"
         sodipodi:arg1="0.62336962"
         sodipodi:r2="29.573179"
         sodipodi:r1="59.146362"
         sodipodi:cy="509.50009"
         sodipodi:cx="-357.75638"
         sodipodi:sides="6"
         id="path7448"
         style="opacity:1;fill:#ff5555;fill-opacity:1;stroke:#ffffff;stroke-width:1.32291663;stroke-miterlimit:4;stroke-dasharray:none;stroke-opacity:1"
         sodipodi:type="star" />
      <path
         sodipodi:type="star"
         style="opacity:1;fill:#ff5555;fill-opacity:1;stroke:#ffffff;stroke-width:1.32291663;stroke-miterlimit:4;stroke-dasharray:none;stroke-opacity:1"
         id="path7450"
         sodipodi:sides="6"
         sodipodi:cx="-357.75638"
         sodipodi:cy="509.50009"
         sodipodi:r1="59.146362"
         sodipodi:r2="29.573179"
         sodipodi:arg1="0.62336962"
         sodipodi:arg2="1.1469684"
         inkscape:flatsided="true"
         inkscape:rounded="0"
         inkscape:randomized="0"
         d="m -309.7345,544.02822 -53.91318,24.3241 -48.02187,-34.52813 5.8913,-58.85223 53.91317,-24.3241 48.02188,34.52813 z"
         inkscape:transform-center-x="-6.3515377e-06"
         inkscape:transform-center-y="-5.3692964e-06"
         transform="matrix(0.75869978,0.34965142,-0.34965142,0.75869978,91.820739,248.03251)" />
    </g>
    <path
       style="opacity:1;fill:#ffffff;fill-opacity:0.59537569;stroke:none;stroke-width:1.03589928;stroke-miterlimit:4;stroke-dasharray:none;stroke-opacity:1"
       d="m -966.48876,148.48445 -23.89255,40.62743 21.83152,38.52278 c 12.50691,-7.669 33.18608,-23.34575 25.01825,-39.82139 -6.34128,-12.7913 -0.71469,-24.15628 24.56632,-38.25785 l -0.39282,-0.69314 z"
       id="path7454"
       inkscape:connector-curvature="0" />
    <text
       transform="matrix(0.99976596,0,-0.34616077,1.0002341,0,0)"
       id="text7460"
       y="196.24203"
       x="-918.64282"
       style="font-style:normal;font-variant:normal;font-weight:bold;font-stretch:normal;font-size:18.40906715px;line-height:1;font-family:sans-serif;-inkscape-font-specification:'sans-serif Bold';letter-spacing:0px;word-spacing:0px;fill:#000000;fill-opacity:1;stroke:#ffffff;stroke-width:0.56978691"
       xml:space="preserve"><tspan
         style="font-style:normal;font-variant:normal;font-weight:bold;font-stretch:normal;font-size:18.40906715px;line-height:1;font-family:sans-serif;-inkscape-font-specification:'sans-serif Bold';stroke:#ffffff;stroke-width:0.56978691"
         y="196.24203"
         x="-918.64282"
         id="tspan7456"
         sodipodi:role="line">MONGO</tspan><tspan
         id="tspan7458"
         style="font-style:normal;font-variant:normal;font-weight:bold;font-stretch:normal;font-size:18.40906715px;line-height:1;font-family:sans-serif;-inkscape-font-specification:'sans-serif Bold';stroke:#ffffff;stroke-width:0.56978691"
         y="214.65111"
         x="-918.64282"
         sodipodi:role="line" /></text>
    <g
       id="g7774"
       transform="translate(-150.83462,56.75192)">
      <rect
         ry="0.52916664"
         y="476.60513"
         x="-841.15063"
         height="55.378246"
         width="203.55246"
         id="rect7665"
         style="opacity:1;fill:#ffcc00;fill-opacity:1;stroke:#ffffff;stroke-width:1.32291663;stroke-miterlimit:4;stroke-dasharray:none;stroke-opacity:1" />
      <text
         xml:space="preserve"
         style="font-style:normal;font-variant:normal;font-weight:bold;font-stretch:normal;font-size:43.4407196px;line-height:1;font-family:sans-serif;-inkscape-font-specification:'sans-serif Bold';letter-spacing:0px;word-spacing:0px;fill:#ffffff;fill-opacity:1;stroke:#4d4d4d;stroke-width:1.34455216"
         x="-599.9696"
         y="526.22748"
         id="text7706"
         transform="matrix(1.0121362,0,-0.35044386,0.98800933,0,0)"><tspan
           sodipodi:role="line"
           id="tspan7702"
           x="-599.9696"
           y="526.22748"
           style="font-style:normal;font-variant:normal;font-weight:bold;font-stretch:normal;font-size:43.4407196px;line-height:1;font-family:sans-serif;-inkscape-font-specification:'sans-serif Bold';fill:#ffffff;stroke:#4d4d4d;stroke-width:1.34455216">CSS</tspan><tspan
           sodipodi:role="line"
           x="-599.9696"
           y="569.66821"
           style="font-style:normal;font-variant:normal;font-weight:bold;font-stretch:normal;font-size:43.4407196px;line-height:1;font-family:sans-serif;-inkscape-font-specification:'sans-serif Bold';fill:#ffffff;stroke:#4d4d4d;stroke-width:1.34455216"
           id="tspan7704" /></text>
    </g>
    <ellipse
       ry="94.191666"
       rx="100.54166"
       cy="561.0462"
       cx="-1088.5581"
       id="ellipse7610"
       style="opacity:1;fill:#ffcc00;fill-opacity:1;stroke:#ffffff;stroke-width:1.32291663;stroke-miterlimit:4;stroke-dasharray:none;stroke-opacity:1" />
    <path
       inkscape:connector-curvature="0"
       id="path7612"
       d="m -1089.7576,473.19476 c -51.4504,-5e-5 -93.1592,39.07449 -93.1592,87.27539 0.023,29.25145 15.6872,56.5468 41.7191,72.69868 106.7422,-42.65712 -11.5213,-94.3973 87.5268,-153.1504 -11.4246,-4.50075 -23.6931,-6.82059 -36.0867,-6.82367 z"
       style="fill:#ffffff;fill-opacity:0.69364163;stroke:#ffffff;stroke-width:0.24515556999999999px;stroke-linecap:butt;stroke-linejoin:miter;stroke-opacity:1"
       sodipodi:nodetypes="ccccc" />
    <path
       inkscape:connector-curvature="0"
       id="path7614"
       d="m -1085.1772,576.39196 a 75.67083,62.970833 0 0 0 -72.5816,45.30886 100.54165,94.191665 0 0 0 69.9358,26.6578 100.54165,94.191665 0 0 0 73.7573,-30.35265 75.67083,62.970833 0 0 0 -71.1115,-41.61401 z"
       style="opacity:1;fill:#b3b3b3;fill-opacity:1;stroke:none;stroke-width:1.32291663;stroke-miterlimit:4;stroke-dasharray:none;stroke-opacity:1" />
    <ellipse
       ry="35.271252"
       rx="42.065639"
       cy="550.13733"
       cx="-1060.5123"
       id="ellipse7616"
       style="opacity:1;fill:#b3b3b3;fill-opacity:1;stroke:none;stroke-width:1.94454861;stroke-miterlimit:4;stroke-dasharray:none;stroke-opacity:1" />
    <g
       id="g7786"
       transform="translate(-108.04425,68.725583)">
      <rect
         style="opacity:1;fill:#338000;fill-opacity:1;stroke:#ffffff;stroke-width:1.32291663;stroke-miterlimit:4;stroke-dasharray:none;stroke-opacity:1"
         id="rect7716"
         width="203.55246"
         height="55.378246"
         x="-68.848602"
         y="464.63147"
         ry="0.52916664" />
      <text
         transform="matrix(1.0121362,0,-0.35044386,0.98800933,0,0)"
         id="text7722"
         y="509.72839"
         x="118.38688"
         style="font-style:normal;font-variant:normal;font-weight:bold;font-stretch:normal;font-size:43.4407196px;line-height:1;font-family:sans-serif;-inkscape-font-specification:'sans-serif Bold';letter-spacing:0px;word-spacing:0px;fill:#ffffff;fill-opacity:1;stroke:#4d4d4d;stroke-width:1.34455216"
         xml:space="preserve"><tspan
           style="font-style:normal;font-variant:normal;font-weight:bold;font-stretch:normal;font-size:43.4407196px;line-height:1;font-family:sans-serif;-inkscape-font-specification:'sans-serif Bold';fill:#ffffff;stroke:#4d4d4d;stroke-width:1.34455216"
           y="509.72839"
           x="118.38688"
           id="tspan7718"
           sodipodi:role="line">MySQL</tspan><tspan
           id="tspan7720"
           style="font-style:normal;font-variant:normal;font-weight:bold;font-stretch:normal;font-size:43.4407196px;line-height:1;font-family:sans-serif;-inkscape-font-specification:'sans-serif Bold';fill:#ffffff;stroke:#4d4d4d;stroke-width:1.34455216"
           y="553.16913"
           x="118.38688"
           sodipodi:role="line" /></text>
    </g>
    <ellipse
       ry="94.191666"
       rx="100.54166"
       cy="561.0462"
       cx="-273.99493"
       id="ellipse7576"
       style="opacity:1;fill:#338000;fill-opacity:1;stroke:#ffffff;stroke-width:1.32291663;stroke-miterlimit:4;stroke-dasharray:none;stroke-opacity:1" />
    <path
       inkscape:connector-curvature="0"
       id="path8413"
       d="m -275.37008,473.7239 c -51.4504,-5e-5 -93.1592,39.07449 -93.1592,87.27539 0.023,29.25145 15.6872,56.5468 41.7191,72.69868 106.7422,-42.65712 -11.5213,-94.3973 87.5268,-153.1504 -11.4246,-4.50075 -23.6931,-6.82059 -36.0867,-6.82367 z"
       style="fill:#ffffff;fill-opacity:0.69364163;stroke:#ffffff;stroke-width:0.24515557px;stroke-linecap:butt;stroke-linejoin:miter;stroke-opacity:1"
       sodipodi:nodetypes="ccccc" />
    <path
       inkscape:connector-curvature="0"
       id="path7580"
       d="m -270.61399,576.39194 a 75.67083,62.970833 0 0 0 -72.58161,45.30886 100.54165,94.191665 0 0 0 69.93578,26.6578 100.54165,94.191665 0 0 0 73.75726,-30.35265 75.67083,62.970833 0 0 0 -71.11143,-41.61401 z"
       style="opacity:1;fill:#b3b3b3;fill-opacity:1;stroke:none;stroke-width:1.32291663;stroke-miterlimit:4;stroke-dasharray:none;stroke-opacity:1" />
    <ellipse
       ry="35.271252"
       rx="42.065639"
       cy="546.96228"
       cx="-294.63242"
       id="ellipse7582"
       style="opacity:1;fill:#b3b3b3;fill-opacity:1;stroke:none;stroke-width:1.94454861;stroke-miterlimit:4;stroke-dasharray:none;stroke-opacity:1" />
    <g
       id="g7826"
       transform="translate(386.48484,-180.28745)">
      <g
         id="g7798">
        <rect
           style="opacity:1;fill:#3cadc9;fill-opacity:1;stroke:#ffffff;stroke-width:1.32291663;stroke-miterlimit:4;stroke-dasharray:none;stroke-opacity:1"
           id="rect7724"
           width="203.55246"
           height="55.378246"
           x="-157.15445"
           y="828.33185"
           ry="0.52916664" />
        <text
           transform="matrix(1.0121362,0,-0.35044386,0.98800933,0,0)"
           id="text7730"
           y="882.24402"
           x="194.14328"
           style="font-style:normal;font-variant:normal;font-weight:bold;font-stretch:normal;font-size:43.4407196px;line-height:1;font-family:sans-serif;-inkscape-font-specification:'sans-serif Bold';letter-spacing:0px;word-spacing:0px;fill:#ffffff;fill-opacity:1;stroke:#4d4d4d;stroke-width:1.34455216"
           xml:space="preserve"><tspan
             style="font-style:normal;font-variant:normal;font-weight:bold;font-stretch:normal;font-size:43.4407196px;line-height:1;font-family:sans-serif;-inkscape-font-specification:'sans-serif Bold';fill:#ffffff;stroke:#4d4d4d;stroke-width:1.34455216"
             y="882.24402"
             x="194.14328"
             id="tspan7726"
             sodipodi:role="line">PHP</tspan><tspan
             id="tspan7728"
             style="font-style:normal;font-variant:normal;font-weight:bold;font-stretch:normal;font-size:43.4407196px;line-height:1;font-family:sans-serif;-inkscape-font-specification:'sans-serif Bold';fill:#ffffff;stroke:#4d4d4d;stroke-width:1.34455216"
             y="925.68475"
             x="194.14328"
             sodipodi:role="line" /></text>
      </g>
    </g>
    <ellipse
       style="opacity:1;fill:#3cadc9;fill-opacity:1;stroke:#ffffff;stroke-width:1.32291663;stroke-miterlimit:4;stroke-dasharray:none;stroke-opacity:1"
       id="ellipse7594"
       cx="133.28668"
       cy="675.73352"
       rx="100.54166"
       ry="94.191666" />
    <path
       sodipodi:nodetypes="ccccc"
       style="fill:#ffffff;fill-opacity:0.69364163;stroke:#ffffff;stroke-width:0.24515557px;stroke-linecap:butt;stroke-linejoin:miter;stroke-opacity:1"
       d="m 133.14659,585.90723 c -51.450404,-5e-5 -93.159204,39.07449 -93.159204,87.27539 0.023,29.25145 15.6872,56.5468 41.7191,72.69868 106.742204,-42.65712 -11.5213,-94.3973 87.526804,-153.1504 -11.4246,-4.50075 -23.6931,-6.82059 -36.0867,-6.82367 z"
       id="path8434"
       inkscape:connector-curvature="0" />
    <path
       style="opacity:1;fill:#b3b3b3;fill-opacity:1;stroke:none;stroke-width:1.32291663;stroke-miterlimit:4;stroke-dasharray:none;stroke-opacity:1"
       d="m 136.66763,691.0793 a 75.67083,62.970833 0 0 0 -72.58161,45.30886 100.54165,94.191665 0 0 0 69.93578,26.6578 100.54165,94.191665 0 0 0 73.75726,-30.35265 75.67083,62.970833 0 0 0 -71.11143,-41.61401 z"
       id="path7598"
       inkscape:connector-curvature="0" />
    <ellipse
       style="opacity:1;fill:#b3b3b3;fill-opacity:1;stroke:none;stroke-width:1.94454861;stroke-miterlimit:4;stroke-dasharray:none;stroke-opacity:1"
       id="ellipse7600"
       cx="161.33252"
       cy="664.82465"
       rx="42.065639"
       ry="35.271252" />
    <g
       id="g7780"
       transform="translate(-31.939038,-38.1)">
      <rect
         style="opacity:1;fill:#ff7f2a;fill-opacity:1;stroke:#ffffff;stroke-width:1.32291663;stroke-miterlimit:4;stroke-dasharray:none;stroke-opacity:1"
         id="rect7732"
         width="203.55246"
         height="55.378246"
         x="-552.76459"
         y="686.14441"
         ry="0.52916664" />
      <text
         transform="matrix(1.0121362,0,-0.35044386,0.98800933,0,0)"
         id="text7738"
         y="738.33099"
         x="-265.3027"
         style="font-style:normal;font-variant:normal;font-weight:bold;font-stretch:normal;font-size:43.4407196px;line-height:1;font-family:sans-serif;-inkscape-font-specification:'sans-serif Bold';letter-spacing:0px;word-spacing:0px;fill:#ffffff;fill-opacity:1;stroke:#4d4d4d;stroke-width:1.34455216"
         xml:space="preserve"><tspan
           style="font-style:normal;font-variant:normal;font-weight:bold;font-stretch:normal;font-size:43.4407196px;line-height:1;font-family:sans-serif;-inkscape-font-specification:'sans-serif Bold';fill:#ffffff;stroke:#4d4d4d;stroke-width:1.34455216"
           y="738.33099"
           x="-265.3027"
           id="tspan7734"
           sodipodi:role="line">HTML</tspan><tspan
           id="tspan7736"
           style="font-style:normal;font-variant:normal;font-weight:bold;font-stretch:normal;font-size:43.4407196px;line-height:1;font-family:sans-serif;-inkscape-font-specification:'sans-serif Bold';fill:#ffffff;stroke:#4d4d4d;stroke-width:1.34455216"
           y="781.77173"
           x="-265.3027"
           sodipodi:role="line" /></text>
    </g>
    <ellipse
       style="opacity:1;fill:#ff7f2a;fill-opacity:1;stroke:#ffffff;stroke-width:1.32291663;stroke-miterlimit:4;stroke-dasharray:none;stroke-opacity:1"
       id="path7559"
       cx="-681.27655"
       cy="674.67517"
       rx="100.54166"
       ry="94.191666" />
    <path
       style="opacity:1;fill:#b3b3b3;fill-opacity:1;stroke:none;stroke-width:5;stroke-miterlimit:4;stroke-dasharray:none;stroke-opacity:1"
       d="M 2437.748 621.42383 A 158.98824 133.30867 0 0 0 2278.7598 754.73438 A 158.98824 133.30867 0 0 0 2354.5039 868.11328 A 285.99999 238 0 0 0 2162.2031 1029.209 A 379.99994 355.99999 0 0 0 2426.5273 1129.9629 A 379.99994 355.99999 0 0 0 2705.2949 1015.2441 A 285.99999 238 0 0 0 2520.0273 868.65039 A 158.98824 133.30867 0 0 0 2596.7363 754.73438 A 158.98824 133.30867 0 0 0 2437.748 621.42383 z "
       transform="matrix(0.26458333,0,0,0.26458333,-1323.6183,466.19305)"
       id="path7569" />
    <g
       id="g7804"
       transform="translate(225.72265,-210.22165)">
      <rect
         style="opacity:1;fill:#8800aa;fill-opacity:1;stroke:#ffffff;stroke-width:1.32291663;stroke-miterlimit:4;stroke-dasharray:none;stroke-opacity:1"
         id="rect7740"
         width="203.55246"
         height="55.378246"
         x="818.70007"
         y="858.26605"
         ry="0.52916664" />
      <text
         transform="matrix(1.0121362,0,-0.35044386,0.98800933,0,0)"
         id="text7746"
         y="908.19324"
         x="1202.4047"
         style="font-style:normal;font-variant:normal;font-weight:bold;font-stretch:normal;font-size:43.4407196px;line-height:1;font-family:sans-serif;-inkscape-font-specification:'sans-serif Bold';letter-spacing:0px;word-spacing:0px;fill:#ffffff;fill-opacity:1;stroke:#4d4d4d;stroke-width:1.34455216"
         xml:space="preserve"><tspan
           style="font-style:normal;font-variant:normal;font-weight:bold;font-stretch:normal;font-size:43.4407196px;line-height:1;font-family:sans-serif;-inkscape-font-specification:'sans-serif Bold';fill:#ffffff;stroke:#4d4d4d;stroke-width:1.34455216"
           y="908.19324"
           x="1202.4047"
           id="tspan7742"
           sodipodi:role="line">Js</tspan><tspan
           id="tspan7744"
           style="font-style:normal;font-variant:normal;font-weight:bold;font-stretch:normal;font-size:43.4407196px;line-height:1;font-family:sans-serif;-inkscape-font-specification:'sans-serif Bold';fill:#ffffff;stroke:#4d4d4d;stroke-width:1.34455216"
           y="951.63397"
           x="1202.4047"
           sodipodi:role="line" /></text>
    </g>
    <ellipse
       ry="94.191666"
       rx="100.54166"
       cy="675.73352"
       cx="947.84991"
       id="ellipse7602"
       style="opacity:1;fill:#8800aa;fill-opacity:1;stroke:#ffffff;stroke-width:1.32291663;stroke-miterlimit:4;stroke-dasharray:none;stroke-opacity:1" />
    <path
       sodipodi:nodetypes="ccccc"
       style="fill:#ffffff;fill-opacity:0.69364163;stroke:#ffffff;stroke-width:0.24515557px;stroke-linecap:butt;stroke-linejoin:miter;stroke-opacity:1"
       d="m 950.41269,585.90723 c 51.45041,-5e-5 93.15921,39.07449 93.15921,87.27539 -0.023,29.25145 -15.6872,56.5468 -41.7191,72.69868 -106.74221,-42.65712 11.5213,-94.3973 -87.52681,-153.1504 11.4246,-4.50075 23.6931,-6.82059 36.0867,-6.82367 z"
       id="path8446"
       inkscape:connector-curvature="0" />
    <path
       inkscape:connector-curvature="0"
       id="path7606"
       d="m 951.23086,691.07929 a 75.67083,62.970833 0 0 0 -72.58161,45.30885 100.54165,94.191665 0 0 0 69.93578,26.6578 100.54165,94.191665 0 0 0 73.75727,-30.35265 75.67083,62.970833 0 0 0 -71.11144,-41.614 z"
       style="opacity:1;fill:#b3b3b3;fill-opacity:1;stroke:none;stroke-width:1.32291663;stroke-miterlimit:4;stroke-dasharray:none;stroke-opacity:1" />
    <ellipse
       ry="35.271252"
       rx="42.065639"
       cy="662.70801"
       cx="957.90411"
       id="ellipse7608"
       style="opacity:1;fill:#b3b3b3;fill-opacity:1;stroke:none;stroke-width:1.94454861;stroke-miterlimit:4;stroke-dasharray:none;stroke-opacity:1" />
    <g
       id="g7792"
       transform="translate(-40.86821,79.202542)">
      <rect
         inkscape:transform-center-x="35.921024"
         style="opacity:1;fill:#ff5555;fill-opacity:1;stroke:#ffffff;stroke-width:1.32291663;stroke-miterlimit:4;stroke-dasharray:none;stroke-opacity:1"
         id="rect7762"
         width="203.55246"
         height="55.378246"
         x="678.0094"
         y="454.15451"
         ry="0.52916664" />
      <text
         inkscape:transform-center-y="-3.0437612e-05"
         inkscape:transform-center-x="35.92104"
         transform="matrix(1.0121362,0,-0.35044386,0.98800933,0,0)"
         id="text7768"
         y="503.50439"
         x="843.71613"
         style="font-style:normal;font-variant:normal;font-weight:bold;font-stretch:normal;font-size:43.4407196px;line-height:1;font-family:sans-serif;-inkscape-font-specification:'sans-serif Bold';letter-spacing:0px;word-spacing:0px;fill:#ffffff;fill-opacity:1;stroke:#4d4d4d;stroke-width:1.34455216"
         xml:space="preserve"><tspan
           style="font-style:normal;font-variant:normal;font-weight:bold;font-stretch:normal;font-size:43.4407196px;line-height:1;font-family:sans-serif;-inkscape-font-specification:'sans-serif Bold';fill:#ffffff;stroke:#4d4d4d;stroke-width:1.34455216"
           y="503.50439"
           x="843.71613"
           id="tspan7764"
           sodipodi:role="line">MONGO</tspan><tspan
           id="tspan7766"
           style="font-style:normal;font-variant:normal;font-weight:bold;font-stretch:normal;font-size:43.4407196px;line-height:1;font-family:sans-serif;-inkscape-font-specification:'sans-serif Bold';fill:#ffffff;stroke:#4d4d4d;stroke-width:1.34455216"
           y="546.94513"
           x="843.71613"
           sodipodi:role="line" /></text>
    </g>
    <ellipse
       style="opacity:1;fill:#ff5555;fill-opacity:1;stroke:#ffffff;stroke-width:1.32291663;stroke-miterlimit:4;stroke-dasharray:none;stroke-opacity:1"
       id="ellipse7584"
       cx="540.5683"
       cy="561.0462"
       rx="100.54166"
       ry="94.191666" />
    <path
       inkscape:connector-curvature="0"
       id="path8440"
       d="m 541.89602,473.7239 c 51.45041,-5e-5 93.15921,39.07449 93.15921,87.27539 -0.023,29.25145 -15.6872,56.5468 -41.7191,72.69868 -106.74221,-42.65712 11.5213,-94.3973 -87.52681,-153.1504 11.4246,-4.50075 23.6931,-6.82059 36.0867,-6.82367 z"
       style="fill:#ffffff;fill-opacity:0.69364163;stroke:#ffffff;stroke-width:0.24515557px;stroke-linecap:butt;stroke-linejoin:miter;stroke-opacity:1"
       sodipodi:nodetypes="ccccc" />
    <path
       style="opacity:1;fill:#b3b3b3;fill-opacity:1;stroke:none;stroke-width:1.32291663;stroke-miterlimit:4;stroke-dasharray:none;stroke-opacity:1"
       d="m 543.94925,576.39193 a 75.67083,62.970833 0 0 0 -72.58161,45.30886 100.54165,94.191665 0 0 0 69.93578,26.6578 100.54165,94.191665 0 0 0 73.75726,-30.35265 75.67083,62.970833 0 0 0 -71.11143,-41.61401 z"
       id="path7588"
       inkscape:connector-curvature="0" />
    <ellipse
       style="opacity:1;fill:#b3b3b3;fill-opacity:1;stroke:none;stroke-width:1.94454861;stroke-miterlimit:4;stroke-dasharray:none;stroke-opacity:1"
       id="ellipse7590"
       cx="563.32251"
       cy="551.19562"
       rx="42.065639"
       ry="35.271252" />
    <path
       id="path8369"
       transform="matrix(0.26458333,0,0,0.26458333,-1323.6183,466.19305)"
       d="M 2437.748 621.42383 A 158.98824 133.30867 0 0 0 2278.7598 754.73438 A 158.98824 133.30867 0 0 0 2354.5039 868.11328 A 285.99999 238 0 0 0 2162.2031 1029.209 A 379.99994 355.99999 0 0 0 2426.5273 1129.9629 A 379.99994 355.99999 0 0 0 2705.2949 1015.2441 A 285.99999 238 0 0 0 2520.0273 868.65039 A 158.98824 133.30867 0 0 0 2596.7363 754.73438 A 158.98824 133.30867 0 0 0 2437.748 621.42383 z "
       style="opacity:1;fill:#b3b3b3;fill-opacity:1;stroke:none;stroke-width:5;stroke-miterlimit:4;stroke-dasharray:none;stroke-opacity:1" />
    <path
       sodipodi:nodetypes="ccccc"
       style="fill:#ffffff;fill-opacity:0.69364163;stroke:#ffffff;stroke-width:0.24515557px;stroke-linecap:butt;stroke-linejoin:miter;stroke-opacity:1"
       d="m -678.3623,586.43641 c 51.4504,-5e-5 93.1592,39.07449 93.1592,87.27539 -0.023,29.25145 -15.6872,56.5468 -41.7191,72.69868 -106.7422,-42.65712 11.5213,-94.3973 -87.5268,-153.1504 11.4246,-4.50075 23.6931,-6.82059 36.0867,-6.82367 z"
       id="path8411"
       inkscape:connector-curvature="0" />
    <path
       style="opacity:1;fill:#b3b3b3;fill-opacity:1;stroke:none;stroke-width:5;stroke-miterlimit:4;stroke-dasharray:none;stroke-opacity:1"
       d="M 2437.748 621.42383 A 158.98824 133.30867 0 0 0 2278.7598 754.73438 A 158.98824 133.30867 0 0 0 2354.5039 868.11328 A 285.99999 238 0 0 0 2162.2031 1029.209 A 379.99994 355.99999 0 0 0 2426.5273 1129.9629 A 379.99994 355.99999 0 0 0 2705.2949 1015.2441 A 285.99999 238 0 0 0 2520.0273 868.65039 A 158.98824 133.30867 0 0 0 2596.7363 754.73438 A 158.98824 133.30867 0 0 0 2437.748 621.42383 z "
       transform="matrix(0.26458333,0,0,0.26458333,-1323.6183,466.19305)"
       id="path8394" />
  </g>
</svg>
