<?xml version="1.0" encoding="UTF-8" standalone="no"?>
<!-- Created with Inkscape (http://www.inkscape.org/) -->

<svg
   xmlns:dc="http://purl.org/dc/elements/1.1/"
   xmlns:cc="http://creativecommons.org/ns#"
   xmlns:rdf="http://www.w3.org/1999/02/22-rdf-syntax-ns#"
   xmlns:svg="http://www.w3.org/2000/svg"
   xmlns="http://www.w3.org/2000/svg"
   xmlns:sodipodi="http://sodipodi.sourceforge.net/DTD/sodipodi-0.dtd"
   xmlns:inkscape="http://www.inkscape.org/namespaces/inkscape"
   width="255.99998"
   height="255.99998"
   viewBox="0 0 67.733328 67.733331"
   version="1.1"
   id="svg2262"
   inkscape:version="0.92.2 (5c3e80d, 2017-08-06)"
   sodipodi:docname="user.svg">
  <defs
     id="defs2256" />
  <sodipodi:namedview
     id="base"
     pagecolor="#ffffff"
     bordercolor="#666666"
     borderopacity="1.0"
     inkscape:pageopacity="0.0"
     inkscape:pageshadow="2"
     inkscape:zoom="0.35355339"
     inkscape:cx="545.5635"
     inkscape:cy="-242.5879"
     inkscape:document-units="px"
     inkscape:current-layer="layer1"
     showgrid="false"
     showborder="true"
     units="px"
     inkscape:window-width="1920"
     inkscape:window-height="1020"
     inkscape:window-x="1280"
     inkscape:window-y="31"
     inkscape:window-maximized="1"
     fit-margin-top="0"
     fit-margin-left="0"
     fit-margin-right="0"
     fit-margin-bottom="0" />
  <metadata
     id="metadata2259">
    <rdf:RDF>
      <cc:Work
         rdf:about="">
        <dc:format>image/svg+xml</dc:format>
        <dc:type
           rdf:resource="http://purl.org/dc/dcmitype/StillImage" />
        <dc:title></dc:title>
      </cc:Work>
    </rdf:RDF>
  </metadata>
  <g
     inkscape:label="Layer 1"
     inkscape:groupmode="layer"
     id="layer1"
     transform="translate(38.513675,-16.915279)">
    <circle
       style="fill:#cccccc;stroke-width:0.26458332"
       id="path2266"
       cx="-4.6470103"
       cy="50.781944"
       r="33.866665" />
    <circle
       style="fill:#808080;stroke-width:0.26458332"
       id="path2273"
       cx="-4.1178432"
       cy="42.844437"
       r="12.170834" />
    <path
       style="fill:#808080;stroke-width:0.52916664"
       d="M -3.8532578,55.279831 A 24.341667,24.341667 0 0 0 -27.807868,75.433122 33.866664,33.866664 0 0 0 -4.6470078,84.648581 33.866664,33.866664 0 0 0 19.830051,74.129843 24.341667,24.341667 0 0 0 -3.8532578,55.279831 Z"
       id="circle2275"
       inkscape:connector-curvature="0" />
    <path
       style="fill:#cccccc;fill-opacity:1;stroke-width:0.21836741"
       d="m 76.781439,20.511711 c -5.56487,0 -10.0449,4.48003 -10.0449,10.0449 v 32.75511 c 0,5.47836 4.34253,9.90217 9.78687,10.03851 0.27585,5.6603 -0.67226,11.221994 -3.10193,17.880105 8.88306,-5.39353 16.35965,-9.605895 21.92929,-17.873705 H 275.49579 c 5.56488,0 10.04491,-4.48003 10.04491,-10.04491 v -32.75511 c 0,-5.56487 -4.48003,-10.0449 -10.04491,-10.0449 z"
       id="rect2280"
       inkscape:connector-curvature="0" />
  </g>
</svg>
